<?xml version="1.0" encoding="UTF-8"?>
<!DOCTYPE svg PUBLIC "-//W3C//DTD SVG 1.1//EN" "http://www.w3.org/Graphics/SVG/1.1/DTD/svg11.dtd">
<svg xmlns="http://www.w3.org/2000/svg" version="1.1" width="512px" height="512px" style="shape-rendering:geometricPrecision; text-rendering:geometricPrecision; image-rendering:optimizeQuality; fill-rule:evenodd; clip-rule:evenodd" xmlns:xlink="http://www.w3.org/1999/xlink">
<g><path style="opacity:0.975" fill="#3c322b" d="M 187.5,479.5 C 187.511,477.983 188.177,476.816 189.5,476C 234.499,475.5 279.499,475.333 324.5,475.5C 324.5,446.167 324.5,416.833 324.5,387.5C 250.166,387.333 175.833,387.5 101.5,388C 95.1722,390.482 91.0055,394.982 89,401.5C 88.3333,421.5 88.3333,441.5 89,461.5C 90.7361,468.237 94.9028,472.737 101.5,475C 119.833,475.333 138.167,475.667 156.5,476C 157.823,476.816 158.489,477.983 158.5,479.5C 158.423,480.75 157.756,481.583 156.5,482C 138.833,482.667 121.167,482.667 103.5,482C 92.881,480.049 86.0477,473.882 83,463.5C 82.3333,442.167 82.3333,420.833 83,399.5C 84.2666,395.131 86.4333,391.297 89.5,388C 75.5,387.667 61.5,387.333 47.5,387C 37.6429,384.124 31.8096,377.624 30,367.5C 29.3333,347.167 29.3333,326.833 30,306.5C 34.8492,291.363 45.3492,284.529 61.5,286C 59.0144,282.863 57.1811,279.363 56,275.5C 55.3333,253.833 55.3333,232.167 56,210.5C 58.632,200.933 64.7987,195.1 74.5,193C 102.5,192.667 130.5,192.333 158.5,192C 143.81,162.12 128.977,132.287 114,102.5C 112.047,94.6754 114.547,88.8421 121.5,85C 131.895,81.8683 142.229,78.535 152.5,75C 155.039,74.2042 157.372,74.3709 159.5,75.5C 159.714,77.1439 159.38,78.6439 158.5,80C 146.363,83.6011 134.363,87.6011 122.5,92C 120.703,93.5941 119.703,95.5941 119.5,98C 134.403,129.308 149.737,160.474 165.5,191.5C 243.164,192.5 320.83,192.833 398.5,192.5C 408.569,193.829 418.735,193.829 429,192.5C 444.062,161.377 459.395,130.377 475,99.5C 475.257,96.9832 474.59,94.6498 473,92.5C 415.997,73.2768 358.83,54.4434 301.5,36C 294.326,35.5649 287.66,37.0649 281.5,40.5C 251.248,49.8615 221.082,59.5281 191,69.5C 189.697,69.0217 188.531,68.355 187.5,67.5C 187.227,65.549 187.893,64.049 189.5,63C 225.336,51.4992 261.169,39.9992 297,28.5C 355.621,46.9292 414.121,65.7625 472.5,85C 481.492,89.983 483.659,97.1497 479,106.5C 464.628,135.411 450.128,164.244 435.5,193C 445.882,196.048 452.049,202.881 454,213.5C 454.954,234.551 454.621,255.551 453,276.5C 447.202,290.354 436.702,296.188 421.5,294C 424.933,297.104 427.1,300.937 428,305.5C 428.667,326.833 428.667,348.167 428,369.5C 426.819,373.363 424.986,376.863 422.5,380C 436.535,380.134 450.535,380.801 464.5,382C 472.359,384.526 477.526,389.693 480,397.5C 481.621,418.782 481.955,440.116 481,461.5C 478.71,473.457 471.543,480.29 459.5,482C 369.5,482.667 279.5,482.667 189.5,482C 188.619,481.292 187.953,480.458 187.5,479.5 Z"/></g>
<g><path style="opacity:1" fill="#d04e5b" d="M 398.5,192.5 C 413.32,162.86 428.153,133.193 443,103.5C 445.907,98.0436 444.741,93.8769 439.5,91C 386.963,73.6538 334.296,56.8205 281.5,40.5C 287.66,37.0649 294.326,35.5649 301.5,36C 358.83,54.4434 415.997,73.2768 473,92.5C 474.59,94.6498 475.257,96.9832 475,99.5C 459.395,130.377 444.062,161.377 429,192.5C 418.735,193.829 408.569,193.829 398.5,192.5 Z"/></g>
<g><path style="opacity:1" fill="#e86b79" d="M 281.5,40.5 C 334.296,56.8205 386.963,73.6538 439.5,91C 444.741,93.8769 445.907,98.0436 443,103.5C 428.153,133.193 413.32,162.86 398.5,192.5C 320.83,192.833 243.164,192.5 165.5,191.5C 149.737,160.474 134.403,129.308 119.5,98C 119.703,95.5941 120.703,93.5941 122.5,92C 134.363,87.6011 146.363,83.6011 158.5,80C 159.38,78.6439 159.714,77.1439 159.5,75.5C 168.775,72.6306 178.108,69.964 187.5,67.5C 188.531,68.355 189.697,69.0217 191,69.5C 221.082,59.5281 251.248,49.8615 281.5,40.5 Z"/></g>
<g><path style="opacity:1" fill="#3f352e" d="M 245.5,98.5 C 256.167,98.5 266.833,98.5 277.5,98.5C 277.5,87.8333 277.5,77.1667 277.5,66.5C 290.327,65.3398 303.327,65.1731 316.5,66C 317.487,76.7517 317.82,87.585 317.5,98.5C 328.172,98.3335 338.839,98.5002 349.5,99C 350.157,105.423 350.491,111.923 350.5,118.5C 350.491,125.077 350.157,131.577 349.5,138C 338.839,138.5 328.172,138.667 317.5,138.5C 317.667,149.172 317.5,159.839 317,170.5C 310.577,171.157 304.077,171.491 297.5,171.5C 290.923,171.491 284.423,171.157 278,170.5C 277.5,159.839 277.333,149.172 277.5,138.5C 266.828,138.667 256.161,138.5 245.5,138C 245,137.5 244.5,137 244,136.5C 243.333,124.167 243.333,111.833 244,99.5C 244.383,98.944 244.883,98.6107 245.5,98.5 Z"/></g>
<g><path style="opacity:1" fill="#928272" d="M 311.5,71.5 C 302.167,71.5 292.833,71.5 283.5,71.5C 283.828,82.0135 283.494,92.3468 282.5,102.5C 282.5,91.8333 282.5,81.1667 282.5,70.5C 292.348,70.1729 302.014,70.5062 311.5,71.5 Z"/></g>
<g><path style="opacity:1" fill="#f2ddc2" d="M 311.5,71.5 C 311.334,81.8387 311.5,92.172 312,102.5C 312.5,103 313,103.5 313.5,104C 323.828,104.5 334.161,104.666 344.5,104.5C 344.5,113.833 344.5,123.167 344.5,132.5C 334.161,132.334 323.828,132.5 313.5,133C 313,133.5 312.5,134 312,134.5C 311.5,144.828 311.334,155.161 311.5,165.5C 302.167,165.5 292.833,165.5 283.5,165.5C 283.666,155.161 283.5,144.828 283,134.5C 282.5,134 282,133.5 281.5,133C 271.172,132.5 260.839,132.334 250.5,132.5C 250.5,123.167 250.5,113.833 250.5,104.5C 261.014,104.828 271.347,104.494 281.5,103.5C 282.167,103.5 282.5,103.167 282.5,102.5C 283.494,92.3468 283.828,82.0135 283.5,71.5C 292.833,71.5 302.167,71.5 311.5,71.5 Z"/></g>
<g><path style="opacity:0.942" fill="#3a3129" d="M 50.5,92.5 C 54.2877,93.6915 56.4544,96.3582 57,100.5C 59.8879,107.386 65.0546,111.219 72.5,112C 74.652,116.873 72.9853,119.54 67.5,120C 59.9676,123.528 55.4676,129.361 54,137.5C 51.7328,138.935 49.7328,138.602 48,136.5C 46.5546,126.057 40.7213,119.891 30.5,118C 29.0652,115.733 29.3985,113.733 31.5,112C 36.8124,110.928 41.3124,108.428 45,104.5C 46.5423,100.252 48.3756,96.2518 50.5,92.5 Z"/></g>
<g><path style="opacity:1" fill="#985155" d="M 277.5,66.5 C 277.5,77.1667 277.5,87.8333 277.5,98.5C 266.833,98.5 256.167,98.5 245.5,98.5C 255.653,97.5058 265.986,97.1724 276.5,97.5C 276.172,86.9865 276.506,76.6532 277.5,66.5 Z"/></g>
<g><path style="opacity:1" fill="#958675" d="M 281.5,103.5 C 271.347,104.494 261.014,104.828 250.5,104.5C 250.5,113.833 250.5,123.167 250.5,132.5C 249.506,123.014 249.173,113.348 249.5,103.5C 260.167,103.5 270.833,103.5 281.5,103.5 Z"/></g>
<g><path style="opacity:1" fill="#ccd455" d="M 51.5,105.5 C 54.4518,109.119 57.7852,112.452 61.5,115.5C 58.1924,118.471 54.859,121.471 51.5,124.5C 48.7106,121.209 45.7106,118.042 42.5,115C 46.4022,112.6 49.4022,109.434 51.5,105.5 Z"/></g>
<g><path style="opacity:0.951" fill="#3b322a" d="M 92.5,112.5 C 94.4672,112.261 96.3005,112.594 98,113.5C 100.598,121.864 105.098,129.031 111.5,135C 115.232,137.133 119.232,138.466 123.5,139C 124.833,141 124.833,143 123.5,145C 113.558,148.622 105.724,154.789 100,163.5C 99.0124,166.424 98.3457,169.424 98,172.5C 96,175.167 94,175.167 92,172.5C 89.97,162.257 84.8034,154.09 76.5,148C 73.1667,147 69.8333,146 66.5,145C 65.0652,142.733 65.3985,140.733 67.5,139C 82.5273,136.425 90.8606,127.591 92.5,112.5 Z"/></g>
<g><path style="opacity:1" fill="#d0d856" d="M 94.5,126.5 C 95.4959,126.414 96.3292,126.748 97,127.5C 100.595,133.882 105.428,139.049 111.5,143C 105.033,147.301 99.3663,152.468 94.5,158.5C 90.7358,151.901 85.7358,146.401 79.5,142C 86.7422,138.926 91.7422,133.759 94.5,126.5 Z"/></g>
<g><path style="opacity:0.944" fill="#3a3129" d="M 48.5,146.5 C 50.604,146.201 52.604,146.534 54.5,147.5C 56.8689,157.202 62.8689,163.202 72.5,165.5C 73.7596,167.353 73.7596,169.186 72.5,171C 67.2391,173.545 62.4058,176.712 58,180.5C 56.0602,183.928 54.8935,187.594 54.5,191.5C 52.396,191.799 50.396,191.466 48.5,190.5C 47.1373,185.442 44.9707,180.776 42,176.5C 38.6284,173.731 34.7951,171.898 30.5,171C 29.1667,169.333 29.1667,167.667 30.5,166C 41.2098,163.792 47.2098,157.292 48.5,146.5 Z"/></g>
<g><path style="opacity:1" fill="#ccd455" d="M 51.5,158.5 C 54.6015,162.104 57.9349,165.604 61.5,169C 57.7012,171.797 54.2012,174.964 51,178.5C 49.0771,174.742 46.5771,171.409 43.5,168.5C 46.9437,165.73 49.6103,162.397 51.5,158.5 Z"/></g>
<g><path style="opacity:1" fill="#88c3da" d="M 76.5,199.5 C 149.833,199.5 223.167,199.5 296.5,199.5C 296.5,228.5 296.5,257.5 296.5,286.5C 222.833,286.5 149.167,286.5 75.5,286.5C 68.9452,284.448 64.4452,280.114 62,273.5C 61.8333,263.333 61.6667,253.167 61.5,243C 61.3661,231.765 61.8661,220.598 63,209.5C 65.9709,204.02 70.4709,200.686 76.5,199.5 Z"/></g>
<g><path style="opacity:1" fill="#736f3a" d="M 378.5,199.5 C 353.5,199.5 328.5,199.5 303.5,199.5C 303.5,228.833 303.5,258.167 303.5,287.5C 302.502,258.005 302.169,228.338 302.5,198.5C 328.005,198.169 353.339,198.502 378.5,199.5 Z"/></g>
<g><path style="opacity:1" fill="#d4db56" d="M 378.5,199.5 C 378.5,228.833 378.5,258.167 378.5,287.5C 353.5,287.5 328.5,287.5 303.5,287.5C 303.5,258.167 303.5,228.833 303.5,199.5C 328.5,199.5 353.5,199.5 378.5,199.5 Z"/></g>
<g><path style="opacity:1" fill="#88c3da" d="M 384.5,199.5 C 391.508,199.334 398.508,199.5 405.5,200C 411.333,201.833 415.167,205.667 417,211.5C 417.667,232.167 417.667,252.833 417,273.5C 415.573,279.925 411.74,284.092 405.5,286C 398.508,286.5 391.508,286.666 384.5,286.5C 384.5,257.5 384.5,228.5 384.5,199.5 Z"/></g>
<g><path style="opacity:1" fill="#6ca5bd" d="M 384.5,199.5 C 400.328,198.339 416.328,198.172 432.5,199C 439.815,200.316 444.648,204.483 447,211.5C 447.667,232.5 447.667,253.5 447,274.5C 444.762,281.07 440.262,285.237 433.5,287C 416.995,287.828 400.661,287.662 384.5,286.5C 391.508,286.666 398.508,286.5 405.5,286C 411.74,284.092 415.573,279.925 417,273.5C 417.667,252.833 417.667,232.167 417,211.5C 415.167,205.667 411.333,201.833 405.5,200C 398.508,199.5 391.508,199.334 384.5,199.5 Z"/></g>
<g><path style="opacity:1" fill="#6e93a0" d="M 76.5,199.5 C 149.998,198.501 223.665,198.167 297.5,198.5C 297.5,228.167 297.5,257.833 297.5,287.5C 223.331,287.833 149.331,287.499 75.5,286.5C 149.167,286.5 222.833,286.5 296.5,286.5C 296.5,257.5 296.5,228.5 296.5,199.5C 223.167,199.5 149.833,199.5 76.5,199.5 Z"/></g>
<g><path style="opacity:1" fill="#ea6d79" d="M 48.5,293.5 C 122.833,293.5 197.167,293.5 271.5,293.5C 271.5,322.833 271.5,352.167 271.5,381.5C 196.442,381.991 121.442,381.491 46.5,380C 41.8558,377.359 38.6891,373.525 37,368.5C 36.3333,347.5 36.3333,326.5 37,305.5C 39.6907,300.311 43.5241,296.311 48.5,293.5 Z"/></g>
<g><path style="opacity:1" fill="#ea6d79" d="M 378.5,293.5 C 385.483,295.652 389.983,300.318 392,307.5C 392.167,317.167 392.333,326.833 392.5,336.5C 392.62,347.555 392.12,358.555 391,369.5C 388.134,375.543 383.634,379.543 377.5,381.5C 371.5,381.5 365.5,381.5 359.5,381.5C 359.5,352.167 359.5,322.833 359.5,293.5C 365.833,293.5 372.167,293.5 378.5,293.5 Z"/></g>
<g><path style="opacity:1" fill="#d14e5c" d="M 378.5,293.5 C 415.441,285.775 430.108,300.441 422.5,337.5C 422.333,347.5 422.167,357.5 422,367.5C 420.167,374.667 415.667,379.167 408.5,381C 398.172,381.5 387.839,381.666 377.5,381.5C 383.634,379.543 388.134,375.543 391,369.5C 392.12,358.555 392.62,347.555 392.5,336.5C 392.333,326.833 392.167,317.167 392,307.5C 389.983,300.318 385.483,295.652 378.5,293.5 Z"/></g>
<g><path style="opacity:1" fill="#cab8a2" d="M 278.5,293.5 C 278.5,322.5 278.5,351.5 278.5,380.5C 303.167,380.5 327.833,380.5 352.5,380.5C 352.5,351.5 352.5,322.5 352.5,293.5C 353.498,322.662 353.831,351.995 353.5,381.5C 328.167,381.5 302.833,381.5 277.5,381.5C 277.169,351.995 277.502,322.662 278.5,293.5 Z"/></g>
<g><path style="opacity:1" fill="#f0ddc1" d="M 278.5,293.5 C 303.167,293.5 327.833,293.5 352.5,293.5C 352.5,322.5 352.5,351.5 352.5,380.5C 327.833,380.5 303.167,380.5 278.5,380.5C 278.5,351.5 278.5,322.5 278.5,293.5 Z"/></g>
<g><path style="opacity:0.999" fill="#86786e" d="M 187.5,479.5 C 177.833,479.5 168.167,479.5 158.5,479.5C 158.489,477.983 157.823,476.816 156.5,476C 138.167,475.667 119.833,475.333 101.5,475C 94.9028,472.737 90.7361,468.237 89,461.5C 88.3333,441.5 88.3333,421.5 89,401.5C 91.0055,394.982 95.1722,390.482 101.5,388C 175.833,387.5 250.166,387.333 324.5,387.5C 324.5,416.833 324.5,446.167 324.5,475.5C 279.499,475.333 234.499,475.5 189.5,476C 188.177,476.816 187.511,477.983 187.5,479.5 Z"/></g>
<g><path style="opacity:1" fill="#d4dc56" d="M 330.5,387.5 C 355.5,387.5 380.5,387.5 405.5,387.5C 405.5,416.833 405.5,446.167 405.5,475.5C 380.5,475.5 355.5,475.5 330.5,475.5C 330.5,446.167 330.5,416.833 330.5,387.5 Z"/></g>
<g><path style="opacity:1" fill="#86786e" d="M 431.5,387.5 C 437.089,389.921 441.256,393.921 444,399.5C 444.667,420.5 444.667,441.5 444,462.5C 441.549,469.12 437.049,473.454 430.5,475.5C 424.167,475.5 417.833,475.5 411.5,475.5C 411.5,446.167 411.5,416.833 411.5,387.5C 418.167,387.5 424.833,387.5 431.5,387.5 Z"/></g>
<g><path style="opacity:1" fill="#685b51" d="M 431.5,387.5 C 441.839,387.334 452.172,387.5 462.5,388C 469.097,390.667 473.263,395.5 475,402.5C 475.667,421.833 475.667,441.167 475,460.5C 473.703,467.798 469.536,472.631 462.5,475C 451.839,475.5 441.172,475.667 430.5,475.5C 437.049,473.454 441.549,469.12 444,462.5C 444.667,441.5 444.667,420.5 444,399.5C 441.256,393.921 437.089,389.921 431.5,387.5 Z"/></g>
</svg>
