<svg width="506" height="505" viewBox="0 0 506 505" fill="none" xmlns="http://www.w3.org/2000/svg">
<path d="M219.772 59.2388C219.772 59.2388 184.168 85.6285 180.556 98.8125C176.944 111.997 181.943 135.161 180.556 139.739C179.17 144.318 156.917 157.231 156.638 175.806C156.358 194.381 164.98 212.695 234.23 220.76C303.481 228.824 329.893 190.874 329.893 170.416C329.893 149.958 312.102 137.033 309.038 127.345C305.974 117.658 318.778 100.155 300.417 78.636C282.056 57.1172 234.23 36.3561 219.772 59.2388Z" fill="#263238" stroke="#263238" stroke-linejoin="round"/>
<path d="M374.241 298.327C374.241 298.327 380.671 351.788 382.012 366.055C383.354 380.321 379.865 388.634 369.41 393.83C358.955 399.025 353.33 402.392 342.573 391.752C331.816 381.111 339.353 360.61 338.816 352.557C338.279 344.503 330.776 313.589 330.776 313.589L374.241 298.327Z" fill="white" stroke="#263238" stroke-linejoin="round"/>
<path d="M375.504 313.318L334.824 326.459L330.81 313.632L374.241 298.316L375.504 313.318Z" fill="#263238" stroke="#263238" stroke-linejoin="round"/>
<path d="M349.573 349.45C349.573 349.45 368.337 344.774 377.182 361.649L349.573 349.45Z" fill="white"/>
<path d="M349.573 349.45C349.573 349.45 368.337 344.774 377.182 361.649" stroke="#263238" stroke-linejoin="round"/>
<path d="M311.286 367.343L322.065 306.434L374.33 292.525C374.33 292.525 372.44 250.786 361.124 234.506C349.808 218.227 320.444 209.047 301.859 203.267C283.275 197.487 265.752 194.077 265.752 194.077C265.752 194.077 232.34 189.618 217.524 197.498C217.524 197.498 166.869 219.017 157.98 223.217C149.09 227.416 139.127 232.147 135.347 252.356C131.568 272.565 129.689 290.685 129.689 290.685L164.443 307.484L174.954 367.343L172.718 384.283L133.838 459.436H353.297L313.824 383.124L311.286 367.343Z" fill="#ABABAB" stroke="#263238" stroke-linejoin="round"/>
<path d="M254.939 289.678C256.125 289.678 257.086 288.748 257.086 287.6C257.086 286.452 256.125 285.521 254.939 285.521C253.754 285.521 252.792 286.452 252.792 287.6C252.792 288.748 253.754 289.678 254.939 289.678Z" stroke="#263238" stroke-linejoin="round"/>
<path d="M254.939 321.48C256.125 321.48 257.086 320.549 257.086 319.402C257.086 318.254 256.125 317.323 254.939 317.323C253.754 317.323 252.792 318.254 252.792 319.402C252.792 320.549 253.754 321.48 254.939 321.48Z" stroke="#263238" stroke-linejoin="round"/>
<path d="M254.939 353.271C256.125 353.271 257.086 352.341 257.086 351.193C257.086 350.045 256.125 349.115 254.939 349.115C253.754 349.115 252.792 350.045 252.792 351.193C252.792 352.341 253.754 353.271 254.939 353.271Z" stroke="#263238" stroke-linejoin="round"/>
<path d="M257.086 382.984C257.086 383.395 256.96 383.797 256.725 384.138C256.489 384.48 256.153 384.747 255.761 384.904C255.369 385.061 254.937 385.102 254.521 385.022C254.104 384.942 253.722 384.744 253.421 384.453C253.121 384.163 252.917 383.792 252.834 383.389C252.751 382.986 252.793 382.568 252.956 382.188C253.118 381.809 253.394 381.484 253.747 381.256C254.1 381.027 254.515 380.906 254.939 380.906C255.509 380.906 256.055 381.124 256.458 381.514C256.86 381.904 257.086 382.433 257.086 382.984Z" stroke="#263238" stroke-linejoin="round"/>
<path d="M254.939 416.853C256.125 416.853 257.086 415.923 257.086 414.775C257.086 413.627 256.125 412.697 254.939 412.697C253.754 412.697 252.792 413.627 252.792 414.775C252.792 415.923 253.754 416.853 254.939 416.853Z" stroke="#263238" stroke-linejoin="round"/>
<path d="M257.086 446.577C257.086 446.988 256.96 447.39 256.725 447.731C256.489 448.073 256.153 448.34 255.761 448.497C255.369 448.654 254.937 448.695 254.521 448.615C254.104 448.535 253.722 448.337 253.421 448.046C253.121 447.756 252.917 447.385 252.834 446.982C252.751 446.579 252.793 446.161 252.956 445.781C253.118 445.402 253.394 445.077 253.747 444.849C254.1 444.62 254.515 444.499 254.939 444.499C255.509 444.499 256.055 444.717 256.458 445.107C256.86 445.497 257.086 446.026 257.086 446.577Z" stroke="#263238" stroke-linejoin="round"/>
<path d="M247.134 275.725V435.709" stroke="#263238" stroke-linejoin="round"/>
<path d="M322.68 286.171L319.851 302.234L330.239 285.121" stroke="#263238" stroke-linejoin="round"/>
<path d="M167.909 286.171L170.738 302.234L160.35 285.121" stroke="#263238" stroke-linejoin="round"/>
<path d="M201.232 244.216C201.232 244.216 194.355 255.148 197.799 254.196C201.243 253.243 220.387 240.893 220.387 240.893C220.387 240.893 213.018 251.825 218.911 255.625C224.804 259.424 248.845 270.454 248.845 270.454C248.845 270.454 277.348 259.435 277.84 255.148C278.332 250.862 276.856 248.968 276.856 246.597C276.856 244.227 273.904 241.369 279.808 243.263C285.712 245.158 307.305 256.577 305.829 253.73C304.353 250.884 280.446 205.021 277.18 203.462C273.915 201.903 229.713 200.475 221.852 204.761C213.991 209.048 201.232 244.216 201.232 244.216Z" fill="#263238" stroke="#263238" stroke-linejoin="round"/>
<path d="M123.013 276.981L118.887 296.357L167.764 319.607L172.528 303.133L123.013 276.981Z" fill="#ABABAB" stroke="#263238" stroke-linejoin="round"/>
<path d="M319.851 302.234L324.425 319.304L382.359 302.505L374.543 282.285L319.851 302.234Z" fill="#ABABAB" stroke="#263238" stroke-linejoin="round"/>
<path d="M221.248 184.152C221.248 184.152 208.724 198.851 207.382 201.2C206.04 203.549 196.099 241.802 192.052 249.368C188.004 256.934 194.21 254.575 198.515 249.888C202.82 245.201 220.879 234.734 220.342 237.884C219.805 241.033 214.952 248.578 217.916 250.148C220.879 251.717 245.133 271.277 247.28 271.277C249.427 271.277 280.155 252.237 281.228 249.628C282.302 247.019 275.302 236.639 278.813 237.104C282.324 237.57 307.887 260.322 310.872 258.493C313.858 256.664 297.398 219.634 289.626 202.943C287.238 197.545 283.405 192.862 278.522 189.377C273.639 185.893 267.883 183.734 261.85 183.123C257.5 182.874 221.248 184.152 221.248 184.152Z" fill="#ABABAB" stroke="#263238" stroke-linejoin="round"/>
<path d="M222.008 178.425C222.008 178.425 217.155 199.555 217.155 205.291C217.155 211.028 243.791 278.009 248.901 270.454C254.011 262.899 277.236 207.673 277.236 203.462C277.236 199.252 275.078 176.856 275.078 176.856C275.078 176.856 256.225 189.12 248.141 189.899C240.056 190.679 222.008 178.425 222.008 178.425Z" fill="white" stroke="#263238" stroke-linejoin="round"/>
<path d="M220.554 181.543C220.554 181.543 213.062 209.935 221.024 212.1C228.986 214.265 274.474 184.292 274.474 184.292L220.554 181.543Z" fill="#263238" stroke="#263238" stroke-linejoin="round"/>
<path d="M227.599 90.7375C225.974 99.577 223.17 108.175 219.257 116.315C213.141 128.428 200.896 138.116 200.896 138.116C200.896 138.116 198.951 144.037 201.456 147.858C202.976 150.144 205.083 152.009 207.572 153.27C207.572 153.27 213.968 171.844 216.518 176.423C219.067 181.002 237.104 198.764 241.823 200.648C246.542 202.531 255.733 202.271 259.625 200.117C263.516 197.963 278.165 181.467 280.155 176.618C282.145 171.769 286.864 152.122 286.864 152.122C286.864 152.122 290.487 151.04 292.712 145.628C294.127 141.906 294.971 138.004 295.217 134.046C295.217 134.046 287.703 132.704 276.297 129.716C264.891 126.728 262.677 124.878 262.677 124.878C262.677 124.878 253.497 125.148 242.091 117.062C230.685 108.977 227.599 90.7375 227.599 90.7375Z" fill="white" stroke="#263238" stroke-linejoin="round"/>
<path d="M238.401 95.0455C238.401 95.0455 239.519 109.583 246.743 115.233C253.967 120.883 258.428 119.812 258.428 119.812C258.428 119.812 244.238 107.699 238.401 95.0455Z" fill="white" stroke="#263238" stroke-linejoin="round"/>
<path d="M222.008 145.66C224.436 146.923 227.141 147.607 229.897 147.654C232.653 147.701 235.38 147.11 237.853 145.931" stroke="#263238" stroke-width="2" stroke-linejoin="round"/>
<path d="M258.708 145.66C261.136 146.923 263.84 147.607 266.596 147.654C269.352 147.701 272.08 147.11 274.553 145.931" stroke="#263238" stroke-width="2" stroke-linejoin="round"/>
<path d="M237.842 133.548C237.842 133.548 229.5 129.499 220.32 136.795" stroke="#263238" stroke-linejoin="round"/>
<path d="M258.976 133.548C258.976 133.548 267.318 129.499 276.498 136.795" stroke="#263238" stroke-linejoin="round"/>
<path d="M241.733 167.46C241.733 167.46 244.238 170.708 247.582 170.968C250.925 171.227 254.291 170.426 255.923 168.272" stroke="#263238" stroke-linejoin="round"/>
<path d="M236.176 177.159C236.176 177.159 242.885 181.489 249.248 180.926C255.61 180.363 261.76 176.077 261.76 176.077" stroke="#263238" stroke-linejoin="round"/>
<path d="M357.076 356.713C357.076 356.713 351.183 347.631 348.5 344.254C345.816 340.877 339.923 339.329 332.409 331.536C324.894 323.742 321.954 331.276 324.369 336.472C326.784 341.667 333.214 345.813 336.166 347.631C339.118 349.45 341.533 354.375 341.533 356.713C341.533 359.051 339.923 364.496 339.923 364.496C337.438 361.447 334.788 358.527 331.984 355.75C325.442 348.93 320.623 343.475 319.281 349.19C317.939 354.905 320.399 357.752 324.872 361.649C329.345 365.546 334.254 370.471 334.791 371.51C335.327 372.549 336.937 380.592 339.353 382.15C341.768 383.709 344.709 384.737 344.709 386.036C344.709 387.335 342.573 392.011 347.661 397.716C352.749 403.42 358.921 402.652 362.198 394.338C365.474 386.025 365.139 370.99 361.929 363.716C358.72 356.443 357.076 356.713 357.076 356.713Z" fill="white" stroke="#263238" stroke-linejoin="round"/>
<path d="M354.661 354.375C354.661 354.375 347.695 361.129 339.923 364.496C332.151 367.862 327.052 369.432 326.505 372.289C325.957 375.147 326.773 377.701 332.934 377.214C339.096 376.727 357.87 369.637 361.091 365.795C364.311 361.952 362.444 350.229 354.661 354.375Z" fill="white" stroke="#263238" stroke-linejoin="round"/>
<path d="M364.121 379.466C364.121 379.466 365.385 382.41 359.76 387.335C354.136 392.26 343.132 397.716 338.581 398.755C334.03 399.794 330.273 397.672 333.214 394.858C336.155 392.044 344.743 386.036 344.743 386.036C351.41 384.469 357.901 382.268 364.121 379.466Z" fill="white" stroke="#263238" stroke-linejoin="round"/>
<path d="M361.102 365.806C361.102 365.806 365.653 363.987 366.995 373.069C368.337 382.15 349.305 386.826 341.802 387.346C334.299 387.866 329.199 385.008 330.273 382.681C331.346 380.353 332.409 380.083 341.533 376.446C350.658 372.809 361.102 365.806 361.102 365.806Z" fill="white" stroke="#263238" stroke-linejoin="round"/>
<path d="M126.502 282.458C126.502 282.458 114.112 286.885 118.149 298.359C122.186 309.833 123.807 312.972 125.16 320.008C126.513 327.044 121.66 332.272 117.076 358.088C112.491 383.904 128.392 389.381 136.477 394.079C144.561 398.776 156.683 372.43 158.024 364.604C159.366 356.778 149.671 333.571 147.793 321.058C145.914 308.545 143.208 301.487 149.403 292.914C155.598 284.342 145.366 281.441 142.135 279.622C138.903 277.804 126.502 282.458 126.502 282.458Z" fill="white" stroke="#263238" stroke-linejoin="round"/>
<path d="M134.318 319.001C143.208 319.001 149.135 310.656 149.135 310.656C151.992 309.76 154.549 308.137 156.537 305.958C159.366 302.57 159.377 296.313 159.377 296.313C159.377 296.313 166.154 286.907 171.23 284.049C176.307 281.192 179.852 279.352 181.473 274.405C183.095 269.458 180.657 266.828 174.194 272.056C167.73 277.284 164.767 278.312 164.767 278.312L142.403 282.75" fill="white"/>
<path d="M134.318 319.001C143.208 319.001 149.135 310.656 149.135 310.656C151.992 309.76 154.549 308.137 156.537 305.958C159.366 302.57 159.377 296.313 159.377 296.313C159.377 296.313 166.154 286.907 171.23 284.049C176.307 281.192 179.852 279.352 181.473 274.405C183.095 269.458 180.657 266.828 174.194 272.056C167.73 277.284 164.767 278.312 164.767 278.312L142.403 282.75" stroke="#263238" stroke-linejoin="round"/>
<path d="M169.469 279.088L138.315 292.838L163.555 346.426L194.71 332.676L169.469 279.088Z" fill="white" stroke="#263238" stroke-linejoin="round"/>
<path d="M156.392 289.689L177.526 334.545" stroke="#263238" stroke-linejoin="round"/>
<path d="M149.571 305.189C150.181 305.455 150.875 305.478 151.502 305.253C152.13 305.029 152.641 304.574 152.925 303.988L156.112 297.363C156.38 296.771 156.399 296.1 156.166 295.494C155.932 294.888 155.464 294.394 154.86 294.116C154.249 293.856 153.557 293.836 152.931 294.06C152.305 294.284 151.794 294.735 151.505 295.317L148.329 301.942C148.058 302.533 148.035 303.203 148.267 303.81C148.499 304.417 148.967 304.912 149.571 305.189Z" fill="#263238" stroke="#263238" stroke-linejoin="round"/>
<path d="M154.603 315.873C155.213 316.136 155.906 316.158 156.533 315.933C157.159 315.709 157.671 315.256 157.957 314.671L161.133 308.047C161.408 307.456 161.432 306.785 161.199 306.177C160.967 305.57 160.498 305.075 159.892 304.8C159.281 304.536 158.589 304.515 157.962 304.739C157.335 304.964 156.824 305.417 156.537 306.001L153.361 312.626C153.09 313.217 153.067 313.887 153.299 314.494C153.531 315.1 153.999 315.595 154.603 315.873Z" fill="#263238" stroke="#263238" stroke-linejoin="round"/>
<path d="M159.635 326.546C160.245 326.812 160.939 326.835 161.566 326.61C162.194 326.385 162.705 325.93 162.989 325.344L166.165 318.72C166.44 318.129 166.464 317.457 166.231 316.85C165.999 316.242 165.529 315.748 164.924 315.472C164.313 315.209 163.621 315.188 162.994 315.412C162.367 315.637 161.856 316.089 161.569 316.674L158.393 323.298C158.122 323.889 158.099 324.56 158.331 325.166C158.563 325.773 159.031 326.268 159.635 326.546Z" fill="#263238" stroke="#263238" stroke-linejoin="round"/>
<path d="M164.667 337.229C165.277 337.492 165.97 337.514 166.597 337.289C167.223 337.065 167.735 336.612 168.021 336.028L171.197 329.403C171.469 328.812 171.491 328.142 171.259 327.535C171.027 326.928 170.56 326.433 169.956 326.156C169.345 325.893 168.653 325.871 168.026 326.096C167.399 326.32 166.888 326.773 166.601 327.358L163.425 333.982C163.151 334.573 163.127 335.244 163.359 335.852C163.591 336.459 164.061 336.954 164.667 337.229Z" fill="#263238" stroke="#263238" stroke-linejoin="round"/>
<path d="M164.052 298.803C164.662 299.066 165.355 299.088 165.982 298.863C166.608 298.639 167.12 298.186 167.406 297.601L170.582 290.977C170.854 290.386 170.876 289.715 170.644 289.109C170.412 288.502 169.944 288.007 169.341 287.73C168.73 287.467 168.038 287.445 167.411 287.669C166.784 287.894 166.273 288.347 165.986 288.931L162.799 295.556C162.528 296.148 162.507 296.819 162.742 297.426C162.976 298.033 163.446 298.527 164.052 298.803Z" fill="#263238" stroke="#263238" stroke-linejoin="round"/>
<path d="M169.072 309.519C169.684 309.781 170.378 309.801 171.005 309.575C171.632 309.348 172.142 308.893 172.427 308.307L175.614 301.693C175.886 301.102 175.908 300.432 175.676 299.825C175.444 299.218 174.976 298.723 174.373 298.446C174.067 298.307 173.737 298.228 173.4 298.214C173.063 298.199 172.726 298.249 172.41 298.361C172.093 298.472 171.802 298.643 171.553 298.864C171.305 299.085 171.104 299.351 170.962 299.647L167.786 306.272C167.521 306.868 167.506 307.542 167.747 308.149C167.987 308.756 168.463 309.247 169.072 309.519Z" fill="#263238" stroke="#263238" stroke-linejoin="round"/>
<path d="M174.104 320.159C174.715 320.422 175.407 320.444 176.034 320.22C176.661 319.995 177.172 319.542 177.459 318.958L180.646 312.333C180.917 311.741 180.937 311.069 180.703 310.463C180.469 309.856 179.999 309.362 179.393 309.086C178.782 308.826 178.091 308.806 177.465 309.03C176.839 309.254 176.327 309.705 176.039 310.288L172.863 316.912C172.591 317.503 172.569 318.174 172.801 318.78C173.033 319.387 173.5 319.882 174.104 320.159Z" fill="#263238" stroke="#263238" stroke-linejoin="round"/>
<path d="M179.136 330.843C179.747 331.106 180.439 331.128 181.066 330.903C181.693 330.679 182.204 330.226 182.491 329.641L185.666 323.017C185.941 322.426 185.965 321.755 185.733 321.147C185.501 320.54 185.031 320.045 184.425 319.77C183.815 319.504 183.121 319.481 182.494 319.705C181.866 319.93 181.355 320.385 181.071 320.971L177.895 327.596C177.623 328.187 177.601 328.857 177.833 329.464C178.065 330.071 178.532 330.565 179.136 330.843Z" fill="#263238" stroke="#263238" stroke-linejoin="round"/>
<path d="M144.561 273.355C144.561 273.355 151.83 266.059 155.598 267.358C159.366 268.657 169.016 278.312 169.341 280.661C169.665 283.01 173.12 290.576 171.767 291.096C170.414 291.616 161.536 286.138 157.756 282.436C153.977 278.735 144.561 273.355 144.561 273.355Z" fill="white" stroke="#263238" stroke-linejoin="round"/>
<path d="M130.013 283.541C130.013 283.541 135.94 271.017 139.977 271.017C144.013 271.017 158.572 277.284 160.451 279.893C162.33 282.501 170.962 290.587 168.804 291.626C166.646 292.666 162.095 290.544 158.841 288.238C157.197 287.018 155.488 285.884 153.719 284.84L144.561 282.231" fill="white"/>
<path d="M130.013 283.541C130.013 283.541 135.94 271.017 139.977 271.017C144.013 271.017 158.572 277.284 160.451 279.893C162.33 282.501 170.962 290.587 168.804 291.626C166.646 292.666 162.095 290.544 158.841 288.238C157.197 287.018 155.488 285.884 153.719 284.84L144.561 282.231" stroke="#263238" stroke-linejoin="round"/>
<path d="M120.576 288.227C120.576 288.227 126.502 275.704 130.55 275.704C134.598 275.704 149.135 281.96 151.024 284.569C152.914 287.178 161.536 295.263 159.377 296.313C157.219 297.363 152.668 295.231 149.403 292.914C147.763 291.699 146.057 290.568 144.293 289.526L135.124 286.918" fill="white"/>
<path d="M120.576 288.227C120.576 288.227 126.502 275.704 130.55 275.704C134.598 275.704 149.135 281.96 151.024 284.569C152.914 287.178 161.536 295.263 159.377 296.313C157.219 297.363 152.668 295.231 149.403 292.914C147.763 291.699 146.057 290.568 144.293 289.526L135.124 286.918" stroke="#263238" stroke-linejoin="round"/>
<path d="M118.149 293.964C118.149 293.964 115.186 287.697 118.149 286.387C121.112 285.078 140.245 280.65 142.135 279.611C144.024 278.572 147.524 280.131 143.253 284.818C138.981 289.505 126.278 292.395 124.937 292.644" fill="white"/>
<path d="M118.149 293.964C118.149 293.964 115.186 287.697 118.149 286.387C121.112 285.078 140.245 280.65 142.135 279.611C144.024 278.572 147.524 280.131 143.253 284.818C138.981 289.505 126.278 292.395 124.937 292.644" stroke="#263238" stroke-linejoin="round"/>
<path d="M81.2149 203.57L66.0632 213.637C66.0632 213.637 58.0904 218.086 53.9642 225.252L37.2918 268.549C37.2918 268.549 35.3461 270.854 33.255 270.27C31.9107 269.893 30.5923 269.434 29.3078 268.895C28.1666 268.321 26.9159 267.98 25.633 267.893C24.3502 267.805 23.0624 267.973 21.8493 268.387C18.1704 269.869 15.0059 272.944 14.2008 278.594C13.3957 284.244 15.319 288.661 19.188 290.252C23.057 291.843 26.6464 291.594 29.934 289.072C33.2215 286.55 35.9052 280.932 36.6432 279.027C37.1576 277.652 37.8956 275.596 38.2534 274.556L51.7725 241.705L54.2214 240.925C54.2214 240.925 62.3172 226.172 65.9067 223.563C69.4961 220.954 79.9178 213.247 81.5616 210.574C83.2053 207.9 81.2149 203.57 81.2149 203.57ZM29.4867 287.362C27.8765 288.877 24.1193 290.035 19.8142 288.282C15.5091 286.528 14.8941 281.506 15.4979 278.312C16.1017 275.119 19.6912 269.859 23.2471 269.956C26.803 270.054 30.7614 271.32 32.4723 274.437C34.1832 277.555 32.763 282.014 32.763 282.014C31.6672 284.623 31.0969 285.835 29.4867 287.362Z" fill="white" stroke="black" stroke-linejoin="round"/>
<path d="M65.4594 277.728C62.5409 275.217 56.771 275.65 56.771 275.65C56.4001 275.63 56.0373 275.537 55.7048 275.377C55.3723 275.216 55.0772 274.992 54.8375 274.717C54.5977 274.443 54.4184 274.123 54.3106 273.779C54.2027 273.435 54.1686 273.074 54.2103 272.716C54.4451 270.032 61.6799 228.456 61.6799 228.456L62.7981 223.043L77.0329 196.946L78.9562 192.075C78.9562 192.075 78.1287 191.361 77.6702 191.415L74.2373 195.008C74.2373 195.008 55.2837 218.465 54.8476 220.229C54.4115 221.993 53.9643 225.252 53.9643 225.252L51.8061 239.323C51.8061 239.323 55.608 242.138 55.6863 243.978C55.7646 245.645 50.0953 280.142 48.9771 287.037C48.8781 287.428 48.8108 287.826 48.7758 288.228C48.5633 291.778 50.4754 297.872 55.9099 297.753C61.3444 297.634 65.1575 294.798 67.4051 289.938C69.6527 285.078 68.3668 280.293 65.4594 277.728ZM65.8284 289.635C64.0169 293.553 60.9307 295.826 56.5249 295.924C52.1192 296.021 50.5537 291.085 50.7215 288.228C50.8235 286.64 51.2531 285.089 51.9848 283.664C52.7165 282.24 53.7356 280.973 54.9818 279.936C56.2044 278.843 57.7911 278.209 59.4546 278.15C61.1844 278.221 62.8521 278.794 64.2406 279.795C66.5776 281.841 67.6958 285.705 65.8172 289.656L65.8284 289.635Z" fill="white" stroke="black" stroke-linejoin="round"/>
<path d="M57.095 220.38L62.8314 223.022" stroke="black" stroke-linejoin="round"/>
<path d="M60.0249 230.242C59.8613 230.577 59.6005 230.86 59.2741 231.055C58.9477 231.25 58.5698 231.349 58.1865 231.34C57.8031 231.33 57.4307 231.214 57.1145 231.004C56.7984 230.794 56.5521 230.499 56.4056 230.156C56.2592 229.813 56.2188 229.436 56.2895 229.071C56.3602 228.706 56.5389 228.369 56.8038 228.101C57.0688 227.832 57.4086 227.644 57.7819 227.559C58.1552 227.474 58.546 227.496 58.9067 227.622C59.158 227.723 59.3862 227.871 59.5784 228.057C59.7707 228.243 59.9231 228.464 60.0269 228.707C60.1308 228.951 60.1841 229.211 60.1837 229.475C60.1834 229.738 60.1294 229.999 60.0249 230.242Z" fill="white" stroke="black" stroke-linejoin="round"/>
<path d="M60.0247 230.242L56.3235 228.953" stroke="black" stroke-linejoin="round"/>
<path d="M64.7436 218.919C64.6569 218.284 64.3898 217.684 63.9721 217.187C63.2676 216.311 62.2277 215.575 62.9321 214.178C63.6366 212.782 74.8411 195.615 74.8411 195.615L76.1605 196.621" fill="white"/>
<path d="M64.7436 218.919C64.6569 218.284 64.3898 217.684 63.9721 217.187C63.2676 216.311 62.2277 215.575 62.9321 214.178C63.6366 212.782 74.8411 195.615 74.8411 195.615L76.1605 196.621" stroke="black" stroke-linejoin="round"/>
<path d="M160.898 46.1736C157.231 37.5142 150.924 31.7448 146.809 33.3684C146.209 33.6045 145.676 33.9756 145.255 34.4509L77.5583 81.5692L90.8426 113.068L160.093 64.8889C164.208 63.2436 164.566 54.8764 160.898 46.1736Z" fill="white" stroke="black" stroke-linejoin="round"/>
<path d="M155.676 49.7351C152.008 41.0756 145.691 35.2954 141.576 36.9191C140.971 37.1766 140.438 37.5699 140.021 38.0665L72.325 85.1632L85.5869 116.673L154.916 68.472C158.975 66.8484 159.389 58.4703 155.676 49.7351Z" fill="white" stroke="black" stroke-linejoin="round"/>
<path d="M92.2068 95.4352C87.3091 83.8099 78.8778 76.1463 73.3762 78.3219C72.5616 78.6537 71.8464 79.1786 71.2963 79.8482L50.9226 93.8549L68.6797 135.962L91.1781 120.429C96.6349 118.253 97.1157 107.104 92.2068 95.4352Z" fill="white" stroke="black" stroke-linejoin="round"/>
<path d="M69.742 110.968C74.6397 122.604 74.2148 133.786 68.6237 135.962C63.0327 138.137 54.7244 130.474 49.8043 118.848C44.8842 107.223 45.3315 96.0306 50.9225 93.8549C56.5136 91.6792 64.833 99.3428 69.742 110.968Z" fill="white" stroke="black" stroke-linejoin="round"/>
<path d="M67.523 133.243C72.3143 131.35 72.7352 121.604 68.4632 111.476C64.1912 101.347 56.844 94.6719 52.0528 96.5656C47.2615 98.4593 46.8406 108.205 51.1126 118.333C55.3846 128.461 62.7318 135.137 67.523 133.243Z" fill="white" stroke="black" stroke-linejoin="round"/>
<path d="M100.639 86.4632L96.8892 81.4208L89.7289 86.4105L93.4789 91.4529L100.639 86.4632Z" fill="white" stroke="black" stroke-linejoin="round"/>
<path d="M454.967 96.1607L443.182 59.24L375.405 79.5118L387.189 116.432L454.967 96.1607Z" fill="white" stroke="black" stroke-linejoin="round"/>
<path d="M444.252 79.9349L387.525 96.9075" stroke="black" stroke-linejoin="round"/>
<path d="M439.025 77.9846L439.478 77.2889C440.233 76.1311 439.875 74.6003 438.679 73.8698L430.527 68.8909C429.331 68.1604 427.75 68.5067 426.995 69.6645L426.542 70.3602C425.787 71.518 426.145 73.0488 427.341 73.7793L435.493 78.7583C436.689 79.4888 438.27 79.1424 439.025 77.9846Z" fill="white" stroke="black" stroke-linejoin="round"/>
<path d="M425.485 81.9987L425.939 81.3031C426.693 80.1454 426.336 78.6145 425.14 77.8838L416.989 72.9035C415.793 72.1728 414.212 72.5189 413.457 73.6766L413.003 74.3723C412.248 75.5299 412.606 77.0607 413.802 77.7915L421.953 82.7718C423.149 83.5025 424.73 83.1564 425.485 81.9987Z" fill="white" stroke="black" stroke-linejoin="round"/>
<path d="M411.981 86.0403L412.435 85.3447C413.19 84.187 412.832 82.6562 411.636 81.9255L403.485 76.9451C402.289 76.2144 400.708 76.5606 399.953 77.7182L399.499 78.4139C398.744 79.5715 399.102 81.1024 400.298 81.8331L408.449 86.8134C409.645 87.5441 411.226 87.198 411.981 86.0403Z" fill="white" stroke="black" stroke-linejoin="round"/>
<path d="M398.496 90.0909L398.95 89.3952C399.705 88.2374 399.347 86.7066 398.151 85.9761L389.999 80.9972C388.803 80.2667 387.221 80.6131 386.467 81.7709L386.013 82.4666C385.259 83.6244 385.616 85.1551 386.813 85.8857L394.964 90.8646C396.16 91.5951 397.742 91.2487 398.496 90.0909Z" fill="white" stroke="black" stroke-linejoin="round"/>
<path d="M444.501 95.1449L444.955 94.4493C445.71 93.2916 445.352 91.7608 444.156 91.0301L436.005 86.0498C434.809 85.3191 433.228 85.6652 432.473 86.8228L432.02 87.5185C431.265 88.6761 431.622 90.207 432.818 90.9377L440.969 95.918C442.165 96.6487 443.747 96.3026 444.501 95.1449Z" fill="white" stroke="black" stroke-linejoin="round"/>
<path d="M430.964 99.154L431.418 98.4583C432.172 97.3007 431.815 95.7698 430.619 95.0391L422.468 90.0588C421.272 89.3281 419.691 89.6742 418.936 90.8319L418.482 91.5275C417.727 92.6852 418.085 94.216 419.281 94.9468L427.432 99.9271C428.628 100.658 430.209 100.312 430.964 99.154Z" fill="white" stroke="black" stroke-linejoin="round"/>
<path d="M417.451 103.19L417.904 102.494C418.659 101.337 418.302 99.8057 417.106 99.075L408.955 94.0947C407.759 93.364 406.177 93.7101 405.422 94.8678L404.969 95.5634C404.214 96.7211 404.571 98.2519 405.767 98.9826L413.918 103.963C415.114 104.694 416.696 104.348 417.451 103.19Z" fill="white" stroke="black" stroke-linejoin="round"/>
<path d="M403.947 107.231L404.4 106.536C405.155 105.378 404.798 103.847 403.602 103.117L395.451 98.1363C394.255 97.4056 392.673 97.7517 391.918 98.9094L391.465 99.605C390.71 100.763 391.068 102.294 392.263 103.024L400.414 108.005C401.61 108.735 403.192 108.389 403.947 107.231Z" fill="white" stroke="black" stroke-linejoin="round"/>
<path d="M416.733 200.193L409.565 206.558L400.463 194.142L404.757 190.332L416.733 200.193Z" fill="white" stroke="black" stroke-linejoin="round"/>
<path d="M413.221 199.814L410.023 202.661C409.287 203.32 408.691 204.113 408.272 204.995C407.852 205.877 407.616 206.831 407.578 207.801C407.539 208.771 407.699 209.739 408.048 210.65C408.396 211.56 408.927 212.395 409.61 213.107L459.661 265.356L465.084 274.795L486.162 254.315L476.411 249.076L423.632 199.89C422.229 198.603 420.375 197.879 418.442 197.865C416.51 197.851 414.644 198.548 413.221 199.814Z" fill="white" stroke="black" stroke-linejoin="round"/>
<path d="M451.71 257.097L461.606 245.861L423.8 210.281L414.675 218.443L451.71 257.097Z" fill="white" stroke="black" stroke-linejoin="round"/>
<path d="M449.183 407.219H421.843V459.436H449.183V407.219Z" fill="white" stroke="#263238" stroke-linejoin="round"/>
<path d="M444.118 423.272H426.897V443.384H444.118V423.272Z" fill="white" stroke="#263238" stroke-linejoin="round"/>
<path d="M443.1 393.613H427.915V407.025H443.1V393.613Z" fill="white" stroke="#263238" stroke-linejoin="round"/>
<path d="M437.911 372.387H433.103L431.504 393.7H439.522L437.911 372.387Z" fill="white" stroke="#263238" stroke-linejoin="round"/>
<path d="M443.1 400.075H427.915V407.025H443.1V400.075Z" fill="white" stroke="#263238" stroke-linejoin="round"/>
<path d="M403.292 423.716H362.533V459.436H403.292V423.716Z" fill="white" stroke="#263238" stroke-linejoin="round"/>
<path d="M403.292 438.48H362.533V459.436H403.292V438.48Z" fill="white" stroke="#263238" stroke-linejoin="round"/>
<path d="M395.487 442.236H362.533V455.691H395.487V442.236Z" fill="white" stroke="#263238" stroke-linejoin="round"/>
<path d="M113.017 397.759H72.2581V459.436H113.017V397.759Z" fill="white" stroke="#263238" stroke-linejoin="round"/>
<path d="M92.3857 398.354V459.111" stroke="#263238" stroke-linejoin="round"/>
<path d="M86.1349 403.561H75.3889V420.014H86.1349V403.561Z" stroke="#263238" stroke-linejoin="round"/>
<path d="M84.2898 406.397H77.2451V417.178H84.2898V406.397Z" stroke="#263238" stroke-linejoin="round"/>
<path d="M109.025 403.561H98.2786V420.014H109.025V403.561Z" stroke="#263238" stroke-linejoin="round"/>
<path d="M107.18 406.397H100.135V417.178H107.18V406.397Z" stroke="#263238" stroke-linejoin="round"/>
<path d="M98.301 407.674H86.1125V415.251H98.301V407.674Z" stroke="#263238" stroke-linejoin="round"/>
<path d="M86.1349 431.596H75.3889V448.049H86.1349V431.596Z" stroke="#263238" stroke-linejoin="round"/>
<path d="M84.2898 434.432H77.2451V445.213H84.2898V434.432Z" stroke="#263238" stroke-linejoin="round"/>
<path d="M109.025 431.596H98.2786V448.049H109.025V431.596Z" stroke="#263238" stroke-linejoin="round"/>
<path d="M107.18 434.432H100.135V445.213H107.18V434.432Z" stroke="#263238" stroke-linejoin="round"/>
<path d="M98.301 435.709H86.1125V443.286H98.301V435.709Z" stroke="#263238" stroke-linejoin="round"/>
<path d="M325.599 323.45H165.628V459.447H325.599V323.45Z" fill="#263238" stroke="#263238" stroke-linejoin="round"/>
<path d="M325.599 364.788H165.628V459.436H325.599V364.788Z" fill="#92E3A9" stroke="#263238" stroke-linejoin="round"/>
<path d="M271.679 402.024H256.192V387.259H235.035V402.024H219.548V422.2H235.035V436.976H256.192V422.2H271.679V402.024Z" fill="white" stroke="#263238" stroke-linejoin="round"/>
<path d="M325.364 316.198H165.941V329.89H325.364V316.198Z" fill="#92E3A9" stroke="#263238" stroke-linejoin="round"/>
<path d="M17.8013 459.436H485.324" stroke="#263238" stroke-linejoin="round"/>
</svg>
