<svg width="704" height="632" viewBox="0 0 704 632" fill="none" xmlns="http://www.w3.org/2000/svg">
<rect x="-25" y="295" width="399" height="337" fill="#89C4DB" fill-opacity="0.62"/>
<path d="M176 460.235H703" stroke="#263238" stroke-linecap="round" stroke-linejoin="round"/>
<path d="M261.644 198.519C257.08 188.956 250.955 186.831 250.955 186.831" stroke="#263238" stroke-linecap="round" stroke-linejoin="round"/>
<path d="M269.829 189.286L267.315 198.328" stroke="#263238" stroke-linecap="round" stroke-linejoin="round"/>
<path d="M272.499 198.466L284.805 175.728" stroke="#263238" stroke-linecap="round" stroke-linejoin="round"/>
<path d="M264.424 163.998L266.883 198.221" stroke="#263238" stroke-linecap="round" stroke-linejoin="round"/>
<path d="M273.274 210.876V205.957L280.297 198.519H252.195L259.218 205.957V210.876C259.219 215.039 258.326 219.158 256.593 222.975C254.861 226.792 252.327 230.225 249.149 233.061V263.183H283.343V233.061C280.167 230.224 277.634 226.79 275.902 222.974C274.169 219.157 273.275 215.039 273.274 210.876Z" stroke="#263238" stroke-linecap="round" stroke-linejoin="round"/>
<path d="M256.681 186.418C265.377 178.906 259.24 173.009 251.398 181.349C251.34 181.409 251.27 181.457 251.192 181.49C251.113 181.522 251.029 181.539 250.944 181.539C250.859 181.539 250.774 181.522 250.696 181.49C250.618 181.457 250.548 181.409 250.49 181.349C242.659 173.009 236.511 178.906 245.206 186.418C245.272 186.471 245.324 186.538 245.36 186.613C245.396 186.689 245.415 186.77 245.415 186.853C245.415 186.936 245.396 187.018 245.36 187.093C245.324 187.168 245.272 187.235 245.206 187.289C236.511 194.801 242.659 200.698 250.49 192.357C250.546 192.294 250.616 192.244 250.694 192.209C250.772 192.174 250.858 192.157 250.944 192.157C251.03 192.157 251.115 192.174 251.194 192.209C251.272 192.244 251.342 192.294 251.398 192.357C259.24 200.698 265.377 194.801 256.681 187.289C256.619 187.233 256.569 187.166 256.535 187.091C256.501 187.016 256.484 186.935 256.484 186.853C256.484 186.771 256.501 186.691 256.535 186.616C256.569 186.541 256.619 186.473 256.681 186.418Z" fill="#263238"/>
<path d="M253.769 186.853C253.769 186.317 253.603 185.793 253.293 185.348C252.982 184.902 252.541 184.555 252.025 184.35C251.509 184.145 250.941 184.091 250.393 184.196C249.845 184.3 249.342 184.558 248.947 184.937C248.552 185.316 248.283 185.799 248.174 186.324C248.065 186.85 248.121 187.395 248.335 187.89C248.548 188.385 248.91 188.808 249.375 189.106C249.839 189.404 250.386 189.562 250.944 189.562C251.693 189.562 252.412 189.277 252.941 188.769C253.471 188.261 253.769 187.572 253.769 186.853Z" fill="white" stroke="#263238" stroke-linecap="round" stroke-linejoin="round"/>
<path d="M269.63 166.357C281.072 163.977 278.79 155.934 267.669 159.441C267.588 159.466 267.502 159.475 267.417 159.467C267.331 159.458 267.249 159.432 267.175 159.391C267.101 159.35 267.036 159.295 266.986 159.228C266.936 159.161 266.901 159.085 266.883 159.005C264.402 148.04 256.017 150.218 259.672 160.886C259.699 160.964 259.708 161.046 259.699 161.128C259.691 161.21 259.664 161.289 259.621 161.36C259.578 161.431 259.52 161.493 259.451 161.541C259.381 161.589 259.302 161.623 259.218 161.64C247.787 164.02 250.058 172.063 261.179 168.557C261.261 168.531 261.348 168.522 261.434 168.531C261.52 168.539 261.603 168.564 261.678 168.605C261.753 168.646 261.818 168.702 261.87 168.769C261.921 168.835 261.957 168.912 261.976 168.992C264.446 179.957 272.831 177.779 269.176 167.112C269.149 167.034 269.14 166.951 269.149 166.869C269.158 166.787 269.184 166.708 269.227 166.637C269.27 166.566 269.328 166.504 269.397 166.456C269.467 166.408 269.546 166.374 269.63 166.357Z" fill="#263238"/>
<path d="M266.872 165.348C267.152 164.883 267.282 164.349 267.245 163.814C267.208 163.279 267.006 162.766 266.665 162.34C266.324 161.915 265.859 161.597 265.329 161.425C264.799 161.254 264.228 161.237 263.688 161.377C263.148 161.518 262.664 161.808 262.296 162.213C261.929 162.618 261.695 163.118 261.625 163.65C261.554 164.183 261.65 164.723 261.9 165.203C262.15 165.683 262.543 166.081 263.029 166.347C263.677 166.701 264.445 166.795 265.165 166.607C265.885 166.42 266.499 165.968 266.872 165.348Z" fill="white" stroke="#263238" stroke-linecap="round" stroke-linejoin="round"/>
<path d="M288.227 180.159C299.47 183.262 301.431 175.144 289.911 173.178C289.826 173.167 289.744 173.137 289.672 173.093C289.6 173.048 289.538 172.989 289.492 172.919C289.446 172.849 289.416 172.771 289.404 172.689C289.392 172.608 289.399 172.524 289.424 172.445C292.647 161.65 284.196 159.77 282.146 170.83C282.131 170.911 282.098 170.989 282.05 171.057C282.002 171.125 281.939 171.182 281.866 171.226C281.792 171.269 281.71 171.296 281.625 171.307C281.54 171.318 281.453 171.311 281.371 171.287C270.128 168.195 268.168 176.313 279.687 178.268C279.773 178.281 279.855 178.312 279.927 178.357C279.999 178.403 280.061 178.463 280.107 178.534C280.153 178.604 280.183 178.683 280.195 178.766C280.206 178.848 280.2 178.932 280.175 179.012C276.952 189.807 285.414 191.677 287.452 180.627C287.467 180.545 287.5 180.468 287.549 180.399C287.597 180.331 287.659 180.273 287.732 180.229C287.805 180.185 287.887 180.156 287.972 180.144C288.057 180.132 288.144 180.137 288.227 180.159Z" fill="#263238"/>
<path d="M286.3 178.023C286.774 177.74 287.15 177.327 287.38 176.839C287.61 176.35 287.683 175.807 287.591 175.278C287.499 174.749 287.246 174.259 286.863 173.868C286.48 173.478 285.985 173.205 285.441 173.084C284.896 172.964 284.326 173.001 283.804 173.191C283.281 173.381 282.829 173.716 282.505 174.152C282.181 174.589 281.999 175.108 281.982 175.644C281.966 176.18 282.115 176.708 282.412 177.163C282.811 177.768 283.443 178.199 284.171 178.36C284.899 178.521 285.664 178.4 286.3 178.023Z" fill="white" stroke="#263238" stroke-linecap="round" stroke-linejoin="round"/>
<path d="M273.252 193.727C284.506 196.819 286.456 188.702 274.936 186.747C274.851 186.732 274.771 186.7 274.699 186.654C274.628 186.608 274.567 186.548 274.522 186.478C274.476 186.408 274.446 186.329 274.433 186.248C274.42 186.166 274.426 186.082 274.449 186.003C277.683 175.208 269.221 173.338 267.171 184.388C267.158 184.469 267.126 184.546 267.079 184.614C267.032 184.682 266.97 184.739 266.897 184.783C266.825 184.826 266.744 184.854 266.659 184.865C266.575 184.875 266.489 184.868 266.407 184.845C255.153 181.753 253.193 189.87 264.724 191.825C264.807 191.841 264.887 191.874 264.957 191.921C265.027 191.967 265.086 192.028 265.131 192.097C265.176 192.167 265.205 192.245 265.217 192.326C265.229 192.408 265.223 192.49 265.2 192.569C261.977 203.364 270.439 205.234 272.477 194.184C272.492 194.103 272.525 194.026 272.573 193.958C272.622 193.89 272.685 193.832 272.758 193.789C272.831 193.746 272.913 193.718 272.998 193.707C273.084 193.697 273.17 193.703 273.252 193.727Z" fill="#263238"/>
<path d="M271.325 191.581C271.799 191.297 272.175 190.885 272.405 190.397C272.635 189.908 272.709 189.365 272.617 188.836C272.525 188.307 272.271 187.816 271.889 187.426C271.506 187.035 271.011 186.762 270.466 186.642C269.921 186.521 269.352 186.558 268.829 186.749C268.307 186.939 267.855 187.273 267.53 187.71C267.206 188.147 267.024 188.666 267.008 189.202C266.991 189.738 267.141 190.266 267.437 190.72C267.834 191.328 268.467 191.761 269.196 191.922C269.925 192.083 270.69 191.961 271.325 191.581Z" fill="white" stroke="#263238" stroke-linecap="round" stroke-linejoin="round"/>
<path d="M195.074 272.384V460.065H201.122V333.319H325.389V460.065H331.448V272.384H195.074Z" stroke="#263238" stroke-linecap="round" stroke-linejoin="round"/>
<path d="M335.945 263.311H190.577V272.384H335.945V263.311Z" stroke="#263238" stroke-linecap="round" stroke-linejoin="round"/>
<path d="M323.672 283.721H203.603V323.948H323.672V283.721Z" stroke="#263238" stroke-linecap="round" stroke-linejoin="round"/>
<path d="M282.59 299.148H244.675V308.52H282.59V299.148Z" stroke="#263238" stroke-linecap="round" stroke-linejoin="round"/>
<path d="M318.821 1H217.792V114.964H318.821V1Z" stroke="black" stroke-linecap="round" stroke-linejoin="round"/>
<path d="M314.545 7.84265H222.067V108.132H314.545V7.84265Z" stroke="black" stroke-linecap="round" stroke-linejoin="round"/>
<path d="M294.796 29.2518H241.806V86.7226H294.796V29.2518Z" stroke="black" stroke-linecap="round" stroke-linejoin="round"/>
<path d="M426.031 178.587L446.533 186.141" stroke="#263238" stroke-linecap="round" stroke-linejoin="round"/>
<path d="M426.031 246.651L446.533 239.086" stroke="#263238" stroke-linecap="round" stroke-linejoin="round"/>
<path d="M446.533 214.128H431.547" stroke="#263238" stroke-linecap="round" stroke-linejoin="round"/>
<path d="M688.59 178.587L668.087 186.141" stroke="#263238" stroke-linecap="round" stroke-linejoin="round"/>
<path d="M688.59 246.651L668.087 239.086" stroke="#263238" stroke-linecap="round" stroke-linejoin="round"/>
<path d="M668.087 214.128H683.062" stroke="#263238" stroke-linecap="round" stroke-linejoin="round"/>
<path d="M627.979 9.91406H492.347C476.625 9.91406 463.88 22.1395 463.88 37.2204V374.724C463.88 389.805 476.625 402.031 492.347 402.031H627.979C643.701 402.031 656.446 389.805 656.446 374.724V37.2204C656.446 22.1395 643.701 9.91406 627.979 9.91406Z" fill="#92E3A9" stroke="#263238" stroke-linecap="round" stroke-linejoin="round"/>
<path d="M649.733 37.1996V374.746C649.733 377.528 649.162 380.282 648.052 382.852C646.942 385.422 645.315 387.757 643.263 389.723C641.212 391.69 638.777 393.249 636.098 394.313C633.418 395.376 630.546 395.923 627.646 395.922H492.668C491.663 395.924 490.66 395.857 489.666 395.72C484.379 395.029 479.532 392.523 476.023 388.667C472.514 384.81 470.58 379.865 470.581 374.746V37.1996C470.581 31.5807 472.908 26.1918 477.05 22.2186C481.192 18.2454 486.81 16.0133 492.668 16.0133H496.589C508.773 16.0133 532.942 16.2258 532.975 16.3427C538.248 16.3427 541.449 17.2139 543.841 19.5302C547.652 23.1852 552.104 28.179 557.92 28.7633C564.001 29.369 568.83 24.6408 572.784 20.8902C577.215 16.6402 583.174 16.0346 589.178 16.0346H627.646C633.5 16.0346 639.115 18.2638 643.256 22.2324C647.398 26.201 649.727 31.5843 649.733 37.1996Z" fill="#263238" stroke="#263238" stroke-linecap="round" stroke-linejoin="round"/>
<path d="M559.016 24.3537C561.164 24.3537 562.904 22.684 562.904 20.6243C562.904 18.5646 561.164 16.8949 559.016 16.8949C556.869 16.8949 555.128 18.5646 555.128 20.6243C555.128 22.684 556.869 24.3537 559.016 24.3537Z" fill="#7D7D7D"/>
<path d="M656.379 122.71V73.9089C657.302 73.9089 658.188 74.2601 658.842 74.8855C659.496 75.5108 659.865 76.3594 659.868 77.2452V119.363C659.869 119.803 659.78 120.239 659.605 120.645C659.431 121.052 659.174 121.421 658.849 121.733C658.525 122.044 658.14 122.29 657.716 122.458C657.292 122.625 656.838 122.711 656.379 122.71Z" fill="#92E3A9" stroke="#263238" stroke-linecap="round" stroke-linejoin="round"/>
<path d="M656.379 164.774V140.422C657.304 140.422 658.192 140.774 658.846 141.402C659.5 142.029 659.868 142.881 659.868 143.768V161.427C659.868 162.315 659.5 163.166 658.846 163.794C658.192 164.421 657.304 164.774 656.379 164.774Z" fill="#92E3A9" stroke="#263238" stroke-linecap="round" stroke-linejoin="round"/>
<path d="M465.453 289.65C465.453 289.65 465.885 291.775 466.306 291.913C466.726 292.052 470.924 291.807 471.035 290.777C471.146 289.746 468.886 289.13 468.886 289.13L465.453 289.65Z" fill="white" stroke="#263238" stroke-linejoin="round"/>
<path d="M631.601 33.2153H614.72C614.6 33.2153 614.484 33.1694 614.399 33.0877C614.314 33.006 614.266 32.8952 614.266 32.7797V23.9078C614.265 23.8497 614.275 23.7919 614.298 23.7378C614.32 23.6837 614.353 23.6345 614.395 23.5929C614.438 23.5513 614.488 23.5182 614.544 23.4957C614.6 23.4731 614.66 23.4615 614.72 23.4615H631.601C631.722 23.4643 631.838 23.5126 631.923 23.5959C632.008 23.6793 632.055 23.7913 632.055 23.9078V32.7797C632.052 32.8944 632.004 33.0036 631.919 33.0847C631.834 33.1659 631.721 33.2126 631.601 33.2153ZM615.186 32.3441H631.147V24.3434H615.175L615.186 32.3441Z" fill="#696969"/>
<path d="M627.879 23.9076H614.72V32.7795H627.879V23.9076Z" fill="#696969"/>
<path d="M627.868 33.1619H614.72C614.614 33.1619 614.513 33.1216 614.438 33.0499C614.363 32.9782 614.321 32.8809 614.321 32.7794V23.9075C614.321 23.8051 614.363 23.7067 614.437 23.6332C614.512 23.5598 614.613 23.5172 614.72 23.5144H627.868C627.977 23.5144 628.081 23.5558 628.158 23.6295C628.235 23.7033 628.278 23.8033 628.278 23.9075V32.7794C628.278 32.8306 628.267 32.8812 628.246 32.9283C628.226 32.9754 628.195 33.0181 628.157 33.0537C628.119 33.0894 628.074 33.1173 628.024 33.1359C627.974 33.1545 627.921 33.1633 627.868 33.1619ZM615.119 32.3863H627.469V24.29H615.119V32.3863Z" fill="#696969"/>
<path d="M633.938 26.3829H631.557V30.2929H633.938V26.3829Z" fill="#696969"/>
<path d="M633.926 30.676H631.6C631.547 30.6774 631.494 30.6686 631.444 30.65C631.395 30.6314 631.349 30.6035 631.311 30.5678C631.273 30.5321 631.243 30.4895 631.222 30.4424C631.201 30.3953 631.19 30.3447 631.19 30.2935V26.3835C631.19 26.3324 631.201 26.2817 631.222 26.2346C631.243 26.1875 631.273 26.1449 631.311 26.1092C631.349 26.0735 631.395 26.0456 631.444 26.027C631.494 26.0084 631.547 25.9996 631.6 26.001H633.971C634.076 26.001 634.178 26.0413 634.253 26.113C634.327 26.1848 634.369 26.2821 634.369 26.3835V30.2935C634.37 30.3475 634.358 30.401 634.335 30.4504C634.313 30.4998 634.279 30.5441 634.237 30.5802C634.196 30.6163 634.146 30.6435 634.093 30.6601C634.039 30.6766 633.982 30.682 633.926 30.676ZM631.955 29.911H633.528V26.7235H631.955V29.911Z" fill="#696969"/>
<path d="M485.39 26.6593H482.3V31.7487H485.39V26.6593Z" fill="#696969"/>
<path d="M485.391 32.2055H482.289C482.16 32.2055 482.036 32.1563 481.945 32.0686C481.853 31.9809 481.802 31.862 481.802 31.738V26.6593C481.802 26.5343 481.853 26.4143 481.944 26.3249C482.035 26.2355 482.159 26.1839 482.289 26.1812H485.391C485.521 26.1839 485.645 26.2355 485.736 26.3249C485.827 26.4143 485.878 26.5343 485.878 26.6593V31.738C485.878 31.862 485.827 31.9809 485.735 32.0686C485.644 32.1563 485.52 32.2055 485.391 32.2055ZM482.788 31.2705H484.892V27.1268H482.788V31.2705Z" fill="#696969"/>
<path d="M490.253 24.8741H487.163V31.7485H490.253V24.8741Z" fill="#696969"/>
<path d="M490.253 32.2059H487.162C487.033 32.2059 486.909 32.1566 486.818 32.069C486.726 31.9813 486.675 31.8624 486.675 31.7384V24.8746C486.675 24.7496 486.726 24.6296 486.817 24.5402C486.908 24.4509 487.032 24.3993 487.162 24.3965H490.253C490.385 24.3965 490.511 24.4469 490.605 24.5365C490.698 24.6262 490.751 24.7478 490.751 24.8746V31.7384C490.751 31.8007 490.738 31.8623 490.713 31.9198C490.688 31.9772 490.651 32.0292 490.604 32.0728C490.558 32.1163 490.503 32.1505 490.442 32.1734C490.382 32.1963 490.317 32.2073 490.253 32.2059ZM487.605 31.2709H489.821V25.3421H487.605V31.2709Z" fill="#696969"/>
<path d="M495.115 22.7603H492.025V31.7384H495.115V22.7603Z" fill="#696969"/>
<path d="M495.115 32.2055H492.036C491.906 32.2055 491.782 32.1563 491.691 32.0686C491.6 31.9809 491.548 31.862 491.548 31.738V22.7599C491.548 22.6359 491.6 22.517 491.691 22.4293C491.782 22.3416 491.906 22.2924 492.036 22.2924H495.126C495.255 22.2924 495.379 22.3416 495.471 22.4293C495.562 22.517 495.613 22.6359 495.613 22.7599V31.738C495.615 31.8007 495.603 31.8631 495.578 31.9212C495.554 31.9793 495.517 32.0319 495.47 32.0758C495.423 32.1197 495.368 32.1538 495.307 32.1761C495.246 32.1984 495.18 32.2084 495.115 32.2055ZM492.512 31.2705H494.628V23.2274H492.512V31.2705Z" fill="#696969"/>
<path d="M561.862 348.12C572.494 348.12 581.113 339.852 581.113 329.653C581.113 319.455 572.494 311.187 561.862 311.187C551.23 311.187 542.611 319.455 542.611 329.653C542.611 339.852 551.23 348.12 561.862 348.12Z" fill="#92E3A9" stroke="#263238" stroke-linecap="round" stroke-linejoin="round"/>
<path d="M574.623 327.135C573.194 326.072 569.926 324.542 563.801 324.351H559.249C553.123 324.542 549.856 326.104 548.427 327.135C547.683 327.609 547.092 328.273 546.722 329.052C546.352 329.832 546.217 330.695 546.333 331.544C546.766 332.815 547.528 333.96 548.549 334.87C548.848 335.167 549.158 335.221 549.867 334.87C550.576 334.519 555.405 332.171 555.693 331.682C555.981 331.194 555.582 329.557 555.582 329.557C555.857 329.346 556.206 329.244 556.557 329.271L561.486 329.132L566.426 329.271C566.774 329.243 567.119 329.346 567.39 329.557C567.39 329.557 566.98 331.172 567.29 331.682C567.6 332.192 572.396 334.572 573.105 334.87C573.814 335.167 574.135 335.114 574.435 334.87C575.455 333.96 576.217 332.815 576.65 331.544C576.773 330.701 576.648 329.842 576.29 329.063C575.932 328.284 575.355 327.617 574.623 327.135Z" fill="white"/>
<path d="M561.796 205.468C572.428 205.468 581.047 197.2 581.047 187.002C581.047 176.803 572.428 168.536 561.796 168.536C551.164 168.536 542.545 176.803 542.545 187.002C542.545 197.2 551.164 205.468 561.796 205.468Z" fill="#696969"/>
<path d="M555.394 183.389C556.85 183.389 558.03 182.257 558.03 180.86C558.03 179.464 556.85 178.332 555.394 178.332C553.938 178.332 552.758 179.464 552.758 180.86C552.758 182.257 553.938 183.389 555.394 183.389Z" fill="white"/>
<path d="M561.796 183.389C563.252 183.389 564.433 182.257 564.433 180.86C564.433 179.464 563.252 178.332 561.796 178.332C560.34 178.332 559.16 179.464 559.16 180.86C559.16 182.257 560.34 183.389 561.796 183.389Z" fill="white"/>
<path d="M568.209 183.389C569.665 183.389 570.846 182.257 570.846 180.86C570.846 179.464 569.665 178.332 568.209 178.332C566.753 178.332 565.573 179.464 565.573 180.86C565.573 182.257 566.753 183.389 568.209 183.389Z" fill="white"/>
<path d="M558.03 187.002C558.03 186.502 557.876 186.013 557.586 185.597C557.296 185.181 556.885 184.857 556.403 184.666C555.921 184.474 555.391 184.424 554.88 184.522C554.368 184.619 553.899 184.86 553.53 185.214C553.161 185.567 552.91 186.018 552.808 186.508C552.707 186.999 552.759 187.507 552.958 187.969C553.158 188.432 553.496 188.827 553.929 189.104C554.363 189.382 554.873 189.531 555.394 189.531C556.093 189.531 556.764 189.264 557.258 188.79C557.753 188.316 558.03 187.672 558.03 187.002Z" fill="white"/>
<path d="M564.433 187.002C564.433 186.502 564.278 186.013 563.988 185.597C563.699 185.181 563.287 184.857 562.805 184.666C562.324 184.474 561.793 184.424 561.282 184.522C560.771 184.619 560.301 184.86 559.932 185.214C559.564 185.567 559.313 186.018 559.211 186.508C559.109 186.999 559.161 187.507 559.361 187.969C559.56 188.432 559.898 188.827 560.332 189.104C560.765 189.382 561.275 189.531 561.796 189.531C562.496 189.531 563.166 189.264 563.66 188.79C564.155 188.316 564.433 187.672 564.433 187.002Z" fill="white"/>
<path d="M570.846 187.002C570.846 186.502 570.691 186.013 570.401 185.597C570.112 185.181 569.7 184.857 569.218 184.666C568.737 184.474 568.207 184.424 567.695 184.522C567.184 184.619 566.714 184.86 566.345 185.214C565.977 185.567 565.726 186.018 565.624 186.508C565.522 186.999 565.574 187.507 565.774 187.969C565.973 188.432 566.311 188.827 566.745 189.104C567.178 189.382 567.688 189.531 568.209 189.531C568.908 189.528 569.577 189.26 570.07 188.787C570.564 188.313 570.843 187.672 570.846 187.002Z" fill="white"/>
<path d="M555.394 195.672C556.85 195.672 558.03 194.54 558.03 193.143C558.03 191.746 556.85 190.614 555.394 190.614C553.938 190.614 552.758 191.746 552.758 193.143C552.758 194.54 553.938 195.672 555.394 195.672Z" fill="white"/>
<path d="M561.796 195.672C563.252 195.672 564.433 194.54 564.433 193.143C564.433 191.746 563.252 190.614 561.796 190.614C560.34 190.614 559.16 191.746 559.16 193.143C559.16 194.54 560.34 195.672 561.796 195.672Z" fill="white"/>
<path d="M568.209 195.672C569.665 195.672 570.846 194.54 570.846 193.143C570.846 191.746 569.665 190.614 568.209 190.614C566.753 190.614 565.573 191.746 565.573 193.143C565.573 194.54 566.753 195.672 568.209 195.672Z" fill="white"/>
<path d="M613.934 205.468C624.566 205.468 633.185 197.2 633.185 187.002C633.185 176.803 624.566 168.536 613.934 168.536C603.302 168.536 594.683 176.803 594.683 187.002C594.683 197.2 603.302 205.468 613.934 205.468Z" fill="#696969"/>
<path d="M608.029 183.772H602.325V191.549H608.029L613.434 195.438V179.883L608.029 183.772Z" fill="white"/>
<path d="M621.631 187.523C621.634 189.268 621.047 190.968 619.959 192.368L620.867 192.888C622.072 191.309 622.713 189.399 622.695 187.443C622.677 185.486 622.001 183.588 620.767 182.029L619.859 182.55C621.01 183.972 621.634 185.722 621.631 187.523Z" fill="white"/>
<path d="M625.564 187.522C625.565 189.94 624.792 192.299 623.348 194.28L624.268 194.801C625.814 192.635 626.634 190.068 626.616 187.444C626.598 184.819 625.744 182.262 624.168 180.117L623.26 180.637C624.757 182.646 625.562 185.053 625.564 187.522Z" fill="white"/>
<path d="M617.411 187.522C617.417 188.541 617.022 189.524 616.304 190.274L617.223 190.795C618.063 189.865 618.517 188.671 618.498 187.44C618.48 186.21 617.991 185.029 617.123 184.122L616.204 184.643C616.987 185.412 617.421 186.447 617.411 187.522Z" fill="white"/>
<path d="M613.934 260.006C624.566 260.006 633.185 251.739 633.185 241.54C633.185 231.341 624.566 223.074 613.934 223.074C603.302 223.074 594.683 231.341 594.683 241.54C594.683 251.739 603.302 260.006 613.934 260.006Z" fill="#696969"/>
<path d="M622.441 241.54C622.438 243.156 621.937 244.735 620.999 246.078C620.061 247.42 618.729 248.466 617.172 249.082C615.615 249.699 613.902 249.858 612.25 249.541C610.598 249.224 609.081 248.444 607.892 247.299C606.702 246.155 605.893 244.698 605.566 243.113C605.24 241.528 605.411 239.885 606.057 238.393C606.704 236.901 607.798 235.626 609.2 234.73C610.602 233.834 612.249 233.357 613.934 233.359C615.053 233.359 616.161 233.571 617.194 233.982C618.228 234.393 619.167 234.996 619.957 235.756C620.747 236.516 621.373 237.418 621.799 238.411C622.226 239.403 622.443 240.467 622.441 241.54Z" stroke="white" stroke-miterlimit="10"/>
<path d="M616.658 239.648C616.658 239.139 616.5 238.642 616.205 238.219C615.91 237.796 615.491 237.466 615.001 237.272C614.51 237.078 613.971 237.027 613.45 237.127C612.93 237.227 612.453 237.473 612.078 237.834C611.704 238.195 611.449 238.654 611.347 239.153C611.245 239.653 611.3 240.17 611.504 240.64C611.709 241.109 612.054 241.51 612.496 241.791C612.939 242.073 613.458 242.222 613.988 242.22C614.34 242.22 614.688 242.153 615.013 242.024C615.337 241.894 615.632 241.705 615.88 241.466C616.128 241.227 616.324 240.943 616.458 240.632C616.591 240.32 616.659 239.986 616.658 239.648Z" fill="white"/>
<path d="M620.845 246.311C620.074 247.337 619.064 248.178 617.897 248.766C616.729 249.355 615.435 249.675 614.116 249.702C612.797 249.728 611.49 249.461 610.297 248.921C609.105 248.38 608.059 247.581 607.243 246.587C609.226 245.073 611.699 244.273 614.232 244.324C616.601 244.291 618.919 244.987 620.845 246.311Z" fill="white"/>
<path d="M561.796 260.006C572.428 260.006 581.047 251.739 581.047 241.54C581.047 231.341 572.428 223.074 561.796 223.074C551.164 223.074 542.545 231.341 542.545 241.54C542.545 251.739 551.164 260.006 561.796 260.006Z" fill="#696969"/>
<path d="M564.975 234.655H553.444C552.594 234.655 551.905 235.316 551.905 236.132V246.555C551.905 247.37 552.594 248.032 553.444 248.032H564.975C565.825 248.032 566.515 247.37 566.515 246.555V236.132C566.515 235.316 565.825 234.655 564.975 234.655Z" fill="white"/>
<path d="M567.512 238.32V244.366L572.496 247.383V235.303L567.512 238.32Z" fill="white"/>
<path d="M509.67 260.006C520.303 260.006 528.921 251.739 528.921 241.54C528.921 231.341 520.303 223.074 509.67 223.074C499.038 223.074 490.419 231.341 490.419 241.54C490.419 251.739 499.038 260.006 509.67 260.006Z" fill="#696969"/>
<path d="M509.67 232.158V250.911" stroke="white" stroke-miterlimit="10"/>
<path d="M519.45 241.54H499.889" stroke="white" stroke-miterlimit="10"/>
<path d="M509.67 205.468C520.303 205.468 528.921 197.2 528.921 187.002C528.921 176.803 520.303 168.536 509.67 168.536C499.038 168.536 490.419 176.803 490.419 187.002C490.419 197.2 499.038 205.468 509.67 205.468Z" fill="#696969"/>
<path d="M509.648 190.508C510.04 190.509 510.428 190.436 510.79 190.293C511.152 190.15 511.481 189.94 511.758 189.674C512.035 189.408 512.255 189.093 512.404 188.745C512.553 188.398 512.629 188.025 512.628 187.65V178.576C512.652 178.185 512.594 177.794 512.455 177.426C512.316 177.058 512.1 176.721 511.821 176.436C511.541 176.151 511.203 175.923 510.829 175.768C510.454 175.613 510.051 175.533 509.642 175.533C509.234 175.533 508.831 175.613 508.456 175.768C508.082 175.923 507.744 176.151 507.464 176.436C507.185 176.721 506.969 177.058 506.83 177.426C506.691 177.794 506.633 178.185 506.657 178.576V187.65C506.657 188.026 506.735 188.399 506.885 188.746C507.036 189.093 507.256 189.409 507.534 189.675C507.812 189.94 508.142 190.15 508.504 190.293C508.867 190.436 509.256 190.509 509.648 190.508Z" fill="white"/>
<path d="M514.943 187.512V183.262C514.943 183.121 514.884 182.986 514.78 182.886C514.677 182.786 514.536 182.73 514.389 182.73C514.242 182.73 514.101 182.786 513.997 182.886C513.893 182.986 513.835 183.121 513.835 183.262V187.512C513.835 188.577 513.394 189.598 512.609 190.352C511.824 191.105 510.759 191.528 509.648 191.528C508.538 191.528 507.473 191.105 506.688 190.352C505.902 189.598 505.461 188.577 505.461 187.512V183.262C505.461 183.121 505.403 182.986 505.299 182.886C505.195 182.786 505.054 182.73 504.907 182.73C504.76 182.73 504.62 182.786 504.516 182.886C504.412 182.986 504.354 183.121 504.354 183.262V187.512C504.355 188.763 504.838 189.97 505.711 190.9C506.585 191.83 507.786 192.417 509.083 192.548V197.244H505.982C505.835 197.244 505.694 197.3 505.59 197.4C505.486 197.499 505.428 197.634 505.428 197.775C505.428 197.916 505.486 198.051 505.59 198.151C505.694 198.251 505.835 198.307 505.982 198.307H513.259C513.406 198.307 513.547 198.251 513.651 198.151C513.755 198.051 513.813 197.916 513.813 197.775C513.813 197.634 513.755 197.499 513.651 197.4C513.547 197.3 513.406 197.244 513.259 197.244H510.169V192.548C511.474 192.427 512.686 191.844 513.568 190.913C514.451 189.982 514.941 188.77 514.943 187.512Z" fill="white"/>
<path d="M501.33 178.565L517.9 194.46" stroke="white" stroke-miterlimit="10"/>
<path d="M542.723 85.4158C542.158 85.4507 541.597 85.305 541.128 85.0015C540.753 84.7382 540.477 84.3654 540.341 83.9389C540.193 83.4343 540.123 82.9118 540.131 82.3877V78.4777C540.118 77.9386 540.192 77.4009 540.352 76.8839C540.481 76.4543 540.758 76.0795 541.139 75.8214C541.612 75.5378 542.165 75.4006 542.723 75.4283C543.231 75.4032 543.735 75.5214 544.174 75.7683C544.524 76.0068 544.788 76.3451 544.927 76.7352C545.088 77.2153 545.163 77.7184 545.149 78.2227V78.8177H544.24V78.2439C544.245 77.8869 544.207 77.5306 544.129 77.1814C544.077 76.903 543.924 76.6511 543.698 76.4696C543.412 76.281 543.068 76.1911 542.723 76.2146C542.357 76.191 541.993 76.2885 541.693 76.4908C541.45 76.6867 541.286 76.957 541.227 77.2558C541.138 77.6357 541.097 78.0246 541.106 78.4139V82.6002C541.094 83.0084 541.142 83.4163 541.25 83.8114C541.323 84.1035 541.499 84.3624 541.748 84.5446C542.039 84.7202 542.379 84.8055 542.723 84.7889C543.072 84.8116 543.418 84.7136 543.698 84.5127C543.929 84.3219 544.082 84.0582 544.129 83.7689C544.21 83.4023 544.247 83.028 544.24 82.6533V82.0052H545.204V82.5896C545.212 83.106 545.145 83.6209 545.005 84.1196C544.892 84.5449 544.63 84.9201 544.262 85.1821C543.791 85.4227 543.249 85.505 542.723 85.4158Z" fill="#92E3A9"/>
<path d="M546.101 85.2992L548.261 75.4604H549.28L551.495 85.2992H550.553L550.044 82.6642H547.596L547.086 85.2992H546.101ZM547.696 81.9948H549.911L548.803 76.6823L547.696 81.9948Z" fill="#92E3A9"/>
<path d="M552.691 85.2992V75.4604H553.655V84.6086H556.568V85.2992H552.691Z" fill="#92E3A9"/>
<path d="M557.532 85.2992V75.4604H558.495V84.6086H561.409V85.2992H557.532Z" fill="#92E3A9"/>
<path d="M562.383 85.2992V75.4604H563.346V85.2992H562.383Z" fill="#92E3A9"/>
<path d="M565.141 85.2992V75.4604H565.828L569.151 83.0998V75.4604H569.993V85.2992H569.306L565.983 77.5748V85.2992H565.141Z" fill="#92E3A9"/>
<path d="M574.058 85.4265C573.523 85.4553 572.992 85.3214 572.541 85.044C572.173 84.776 571.902 84.4045 571.766 83.9815C571.603 83.4468 571.524 82.8916 571.533 82.3346V78.499C571.524 77.9426 571.599 77.388 571.755 76.8521C571.888 76.4246 572.164 76.0512 572.541 75.7896C573.012 75.5566 573.534 75.4351 574.064 75.4351C574.594 75.4351 575.116 75.5566 575.587 75.7896C575.952 76.0164 576.228 76.3526 576.373 76.7458C576.541 77.2468 576.62 77.7711 576.606 78.2971V78.6371H575.698V78.2015C575.708 77.8079 575.663 77.4149 575.565 77.0327C575.499 76.7571 575.335 76.5126 575.1 76.3421C574.813 76.1656 574.475 76.0835 574.136 76.1083C573.761 76.082 573.388 76.1836 573.084 76.3952C572.835 76.6041 572.671 76.8898 572.618 77.2027C572.538 77.5874 572.501 77.9792 572.508 78.3715V82.409C572.5 82.8199 572.545 83.2302 572.641 83.6308C572.705 83.938 572.882 84.213 573.139 84.4065C573.436 84.6072 573.796 84.7046 574.158 84.6827C574.507 84.7017 574.851 84.6041 575.133 84.4065C575.381 84.2029 575.552 83.9266 575.62 83.6202C575.726 83.2174 575.774 82.8029 575.764 82.3877V81.2296H574.247V80.539H576.65V85.299H576.03L575.919 84.2365C575.806 84.5903 575.586 84.9043 575.288 85.1396C574.926 85.3709 574.491 85.4725 574.058 85.4265Z" fill="#92E3A9"/>
<path d="M578.178 85.2992V83.9604H579.153V85.2992H578.178Z" fill="#92E3A9"/>
<path d="M580.471 85.2992V83.9604H581.446V85.2992H580.471Z" fill="#92E3A9"/>
<path d="M582.765 85.2992V83.9604H583.739V85.2992H582.765Z" fill="#92E3A9"/>
<path d="M513.347 111.798V93.9158H520.093V95.212H515.119V101.927H519.173V103.17H515.119V110.544H520.137V111.798H513.347Z" fill="#92E3A9"/>
<path d="M522.375 111.798L522.829 93.9158H524.557L528.267 109.439L532.022 93.9158H533.761L534.226 111.798H532.775L532.41 97.5602L528.843 111.798H527.736L524.158 97.5814L523.781 111.798H522.375Z" fill="#92E3A9"/>
<path d="M537.295 111.798V93.9158H544.096V95.212H539.123V101.927H543.166V103.17H539.123V110.544H544.096V111.798H537.295Z" fill="#92E3A9"/>
<path d="M546.478 111.798V93.9157H550.742C551.694 93.8706 552.643 94.057 553.5 94.4575C554.154 94.8032 554.662 95.355 554.94 96.0194C555.245 96.8001 555.392 97.6296 555.372 98.4632C555.376 99.0934 555.298 99.7215 555.139 100.333C555.011 100.889 554.745 101.406 554.364 101.842C553.951 102.277 553.397 102.565 552.791 102.66L555.649 111.798H553.943L551.207 103.011H548.283V111.798H546.478ZM548.228 101.778H550.598C551.229 101.812 551.857 101.68 552.415 101.396C552.842 101.157 553.168 100.78 553.334 100.333C553.537 99.7442 553.63 99.1257 553.611 98.5057C553.674 97.6416 553.466 96.7792 553.013 96.03C552.715 95.7215 552.344 95.4861 551.932 95.3437C551.519 95.2013 551.077 95.1561 550.642 95.2119H548.228V101.778Z" fill="#92E3A9"/>
<path d="M562.461 112.042C561.487 112.096 560.521 111.85 559.703 111.341C559.017 110.84 558.52 110.139 558.285 109.344C557.995 108.37 557.857 107.36 557.875 106.347V99.3667C557.856 98.3582 557.99 97.3523 558.274 96.3811C558.504 95.5922 559.008 94.9024 559.703 94.4261C560.572 93.9204 561.58 93.6796 562.594 93.7355C563.521 93.6921 564.441 93.8982 565.252 94.3305C565.919 94.7386 566.419 95.3536 566.67 96.073C566.981 96.9773 567.127 97.9261 567.102 98.878V99.558H565.452V98.9311C565.472 98.2154 565.39 97.5005 565.208 96.8061C565.084 96.3057 564.787 95.8602 564.366 95.5417C563.834 95.2312 563.215 95.0865 562.594 95.1273C561.913 95.0746 561.235 95.2637 560.689 95.6586C560.239 96.0343 559.941 96.5495 559.847 97.1142C559.706 97.8143 559.639 98.5262 559.648 99.2392V106.602C559.633 107.353 559.715 108.102 559.891 108.834C560.009 109.391 560.327 109.891 560.789 110.247C561.334 110.596 561.984 110.764 562.638 110.725C563.255 110.793 563.876 110.632 564.373 110.274C564.869 109.916 565.204 109.389 565.308 108.802C565.496 108.065 565.582 107.308 565.563 106.549V104.424H562.804V103.16H567.18V111.819H566.072L565.862 109.79C565.669 110.434 565.284 111.011 564.754 111.447C564.087 111.899 563.275 112.11 562.461 112.042Z" fill="#92E3A9"/>
<path d="M570.192 111.798V93.9158H576.938V95.212H571.965V101.927H576.019V103.17H571.965V110.544H576.982V111.798H570.192Z" fill="#92E3A9"/>
<path d="M579.375 111.798V93.9158H580.648L586.585 107.803V93.9158H588.103V111.798H586.862L580.87 97.7514V111.798H579.375Z" fill="#92E3A9"/>
<path d="M595.68 112.021C594.648 112.087 593.623 111.822 592.766 111.267C592.077 110.761 591.579 110.051 591.349 109.248C591.082 108.332 590.951 107.384 590.961 106.432V99.3243C590.943 98.3403 591.078 97.3593 591.36 96.4131C591.594 95.6174 592.101 94.921 592.8 94.4368C593.662 93.9251 594.667 93.6803 595.68 93.7356C596.603 93.6845 597.521 93.8991 598.316 94.3518C598.963 94.7746 599.446 95.3911 599.689 96.1049C599.982 96.98 600.12 97.8956 600.099 98.8143V99.8768H598.449V98.8143C598.459 98.14 598.392 97.4665 598.249 96.8062C598.146 96.2963 597.865 95.8353 597.452 95.4993C596.932 95.1582 596.307 94.9971 595.68 95.0424C595.014 94.9922 594.351 95.1691 593.808 95.5418C593.362 95.8996 593.06 96.3957 592.955 96.9443C592.791 97.6413 592.716 98.355 592.733 99.0693V106.687C592.715 107.432 592.805 108.176 592.999 108.897C593.135 109.427 593.456 109.895 593.907 110.226C594.438 110.541 595.056 110.693 595.68 110.661C596.311 110.706 596.938 110.537 597.452 110.183C597.868 109.828 598.149 109.349 598.249 108.823C598.392 108.148 598.458 107.461 598.449 106.772V105.604H600.099V106.666C600.117 107.607 599.99 108.545 599.723 109.45C599.505 110.21 599.029 110.88 598.371 111.352C597.57 111.841 596.628 112.076 595.68 112.021Z" fill="#92E3A9"/>
<path d="M605.814 111.798V105.858L601.594 93.9158H603.3L606.623 103.85L609.846 93.9158H611.663L607.553 105.858V111.798H605.814Z" fill="#92E3A9"/>
<path d="M412.606 440.621C412.606 440.621 416.56 435.309 419.252 434.49C421.943 433.672 427.105 438.029 427.559 438.74C428.013 439.452 435.744 443.437 439.344 444.797C442.944 446.157 447.098 453.212 448.128 455.167C449.158 457.122 448.56 459.109 446.068 459.31C443.576 459.512 434.227 455.783 429.597 454.147C424.967 452.51 419.816 451.172 419.816 451.172C419.816 451.172 412.063 445.54 411.875 444.797C411.686 444.053 412.606 440.621 412.606 440.621Z" fill="white" stroke="#263238" stroke-linecap="round" stroke-linejoin="round"/>
<path d="M341.55 463.486C341.55 463.486 355.44 462.052 361.421 459.172C367.402 456.293 415.873 451.735 415.873 451.735L411.819 441.482C411.819 441.482 377.017 444.053 368.255 443.033C359.494 442.013 355.65 441.386 354.587 441.386C353.524 441.386 350.743 451.639 348.395 454.71C346.047 457.781 340.054 460.447 340.054 460.447C340.054 460.447 337.917 463.072 341.55 463.486Z" fill="white" stroke="#263238" stroke-linecap="round" stroke-linejoin="round"/>
<path d="M453.977 446.04C453.977 446.04 457.932 440.727 460.623 439.909C463.315 439.091 468.476 443.458 468.919 444.212C469.363 444.967 477.116 448.898 480.716 450.269C484.316 451.639 488.47 458.673 489.5 460.639C490.53 462.604 489.932 464.57 487.439 464.772C484.947 464.974 475.599 461.244 470.969 459.608C466.339 457.972 461.188 456.633 461.188 456.633C461.188 456.633 453.49 451.002 453.246 450.258C453.002 449.514 453.977 446.04 453.977 446.04Z" fill="#263238" stroke="#263238" stroke-linecap="round" stroke-linejoin="round"/>
<path d="M387.185 463.497C391.971 463.949 396.79 463.995 401.585 463.635C409.936 463.061 433.352 459.544 436.055 459.385C438.758 459.226 459.382 456.771 459.382 456.771C459.382 456.771 461.908 457.217 460.601 453.265C459.293 449.312 454.021 446.019 454.021 446.019C454.021 446.019 439.987 445.541 435.313 445.594C430.638 445.647 401.407 443.171 401.407 443.171C401.407 443.171 385.07 453.807 387.185 463.497Z" fill="#263238" stroke="#263238" stroke-linecap="round" stroke-linejoin="round"/>
<path d="M334.55 358.617C332.652 366.489 331.352 374.482 330.662 382.534C330.019 393.159 324.68 450.981 326.176 454.051C327.671 457.122 333.01 464.676 339.844 463.486C346.678 462.296 350.311 458.567 351.386 456.92C352.46 455.273 367.835 394.827 367.835 394.827C367.835 394.827 371.468 407.577 371.468 410.605C371.468 413.634 368.222 458.206 370.814 460.394C377.593 466.132 385.358 464.708 386.421 464.708C387.484 464.708 394.54 463.072 395.825 461.637C397.11 460.203 406.503 427.414 408.209 415.525C409.914 403.635 417.402 370.847 414.622 360.19C411.842 349.533 403.302 339.683 403.302 339.683C403.302 339.683 396.656 345.219 377.659 353.209C358.663 361.199 341.771 359.361 339.999 358.522C338.227 357.682 334.55 358.617 334.55 358.617Z" fill="#92E3A9" stroke="#263238" stroke-linecap="round" stroke-linejoin="round"/>
<path d="M307.5 267.486C307.5 267.486 303.357 273.288 302.726 276.486C302.095 279.684 292.536 305.035 292.536 305.035C292.536 305.035 301.929 307.16 305.429 307.33L312.584 307.628L315.774 308.244C315.774 308.244 316.406 324.118 319.751 327.475C323.096 330.833 329.62 334.807 330.251 337.24C330.883 339.673 334.87 357.852 334.549 358.617C334.228 359.382 333.12 364.259 333.12 364.259C333.12 364.259 345.05 374.342 360.169 374.342C375.289 374.342 388.182 374.342 396.135 363.505C404.088 352.667 406.325 346.707 404.885 342.127C403.445 337.548 395.658 332.82 394.916 332.055C394.174 331.29 386.642 322.747 386.642 322.747C386.642 322.747 387.595 287.94 386.166 278.93C384.737 269.92 376.463 266.721 372.796 266.105C369.13 265.489 355.14 265.351 355.14 265.351L315.508 263.969L307.5 267.486Z" fill="#263238" stroke="#263238" stroke-linecap="round" stroke-linejoin="round"/>
<path d="M295.726 262.121C295.726 262.121 293.334 264.862 296.513 269.452C299.692 274.042 308.774 286.558 309.273 287.621C309.771 288.683 297.809 313.726 297.809 313.726C297.809 313.726 288.427 326.391 289.856 331.895C291.284 337.399 298.451 341.66 300.201 341.203C301.951 340.746 309.428 334.945 311.499 331.13C313.57 327.316 318.145 285.942 318.145 285.942C318.145 285.942 320.061 278.77 319.895 276.634C319.55 273.653 319.021 270.694 318.311 267.773C317.99 266.859 309.716 247.586 309.716 247.586L298.894 258.572L295.726 262.121Z" fill="white" stroke="#263238" stroke-linecap="round" stroke-linejoin="round"/>
<path d="M311.001 275.572C311.001 275.572 314.18 279.546 314.656 281.947C314.939 283.422 314.832 284.941 314.346 286.367" stroke="#263238" stroke-linecap="round" stroke-linejoin="round"/>
<path d="M306.702 245.046L306.226 273.287L313.858 274.052L312.595 246.417L306.702 245.046Z" fill="#263238" stroke="#263238" stroke-linecap="round" stroke-linejoin="round"/>
<path d="M299.06 266.105C299.06 266.105 308.132 259.241 309.405 257.605C310.133 256.743 310.525 255.665 310.513 254.556L306.215 241.88C306.215 241.88 301.918 245.068 301.275 246.459C300.633 247.851 295.394 262.333 295.072 263.406C294.751 264.479 293.965 265.85 295.87 267.369" fill="white"/>
<path d="M299.06 266.105C299.06 266.105 308.132 259.241 309.405 257.605C310.133 256.743 310.525 255.665 310.513 254.556L306.215 241.88C306.215 241.88 301.918 245.068 301.275 246.459C300.633 247.851 295.394 262.333 295.072 263.406C294.751 264.479 293.965 265.85 295.87 267.369" stroke="#263238" stroke-linecap="round" stroke-linejoin="round"/>
<path d="M298.583 261.377C298.583 261.377 307.334 255.883 309.571 253.132" stroke="#263238" stroke-linecap="round" stroke-linejoin="round"/>
<path d="M298.905 256.033C298.905 256.033 306.858 251.613 308.453 248.595" stroke="#263238" stroke-linecap="round" stroke-linejoin="round"/>
<path d="M300.5 250.391L307.024 245.96" stroke="#263238" stroke-linecap="round" stroke-linejoin="round"/>
<path d="M322.564 273.649C322.564 273.649 324.68 286.325 329.853 294.049C335.026 301.773 346.301 312.058 346.301 312.058C346.301 312.058 354.531 296.44 356.071 281.926C357.611 267.412 357.6 265.393 357.6 265.393L353.169 264.841L322.564 268.326V273.649Z" fill="#757575" stroke="#263238" stroke-linecap="round" stroke-linejoin="round"/>
<path d="M325.167 276.794C325.167 276.794 329.775 289.767 334.029 295.919C336.985 299.983 340.342 303.765 344.053 307.213C348.052 300.332 350.797 292.848 352.172 285.081C354.077 273.022 355.041 265.393 355.041 265.393C353.388 263.427 351.906 261.334 350.61 259.135C349.813 257.297 349.026 255.947 349.026 255.947C349.026 255.947 348.539 264.649 342.812 269.994C337.086 275.338 335.967 276.092 332.633 276.369C329.299 276.645 325.167 276.794 325.167 276.794Z" fill="white" stroke="#263238" stroke-linecap="round" stroke-linejoin="round"/>
<path d="M337.728 281.246L340.032 272.501C336.598 275.561 335.358 276.114 332.644 276.358C329.321 276.666 325.167 276.815 325.167 276.815C325.167 276.815 327.538 283.498 330.473 289.565L337.728 281.246Z" fill="#263238" stroke="#263238" stroke-linecap="round" stroke-linejoin="round"/>
<path d="M300.976 232.073C300.976 232.073 296.678 238.629 297.31 242.146C297.941 245.663 306.703 250.232 306.703 250.232L310.358 240.159C310.358 240.159 321.822 244.133 325.167 244.281C328.512 244.43 335.502 243.825 337.252 244.133C339.002 244.441 349.669 250.232 348.871 251.91C348.073 253.589 347.763 256.947 348.24 257.871C348.89 258.847 349.631 259.765 350.455 260.612C350.455 260.612 355.86 258.487 358.729 255.576C361.598 252.665 363.348 250.083 363.503 246.566C363.658 243.049 355.75 232.073 355.75 232.073C355.75 232.073 354.321 222.447 352.094 219.706C349.868 216.965 332.832 208.411 328.058 207.487C323.284 206.563 324.403 205.66 321.534 207.03C318.665 208.401 300.489 219.546 299.569 223.063C298.65 226.58 300.976 232.073 300.976 232.073Z" fill="#263238" stroke="#263238" stroke-linecap="round" stroke-linejoin="round"/>
<path d="M308.774 235.728C308.774 235.728 321.025 241.381 324.204 241.689C326.045 241.869 327.901 241.869 329.742 241.689L326.718 233.284C327.605 235.173 328.902 236.859 330.521 238.229C332.141 239.6 334.047 240.623 336.111 241.232C342.956 243.059 348.517 244.589 348.517 244.589L349.314 240.467C349.314 240.467 353.933 240.308 354.731 244.589C355.528 248.871 354.731 254.205 354.088 254.811C353.446 255.416 350.588 257.414 350.588 257.414C350.588 257.414 351.862 262.45 351.386 263.513C350.909 264.575 338.526 280.183 337.728 281.246C336.931 282.308 332.323 282.924 330.252 282.468C328.18 282.011 317.846 270.706 315.298 268.273C312.751 265.839 308.929 255.905 307.545 252.696C306.16 249.488 306.105 248.574 307.068 245.981C308.032 243.389 308.774 235.728 308.774 235.728Z" fill="white" stroke="#263238" stroke-linecap="round" stroke-linejoin="round"/>
<path d="M319.43 251.145C319.43 251.145 322.144 257.871 323.407 260.771C324.669 263.672 325.323 268.209 326.918 267.784C328.106 267.338 329.187 266.666 330.097 265.808" stroke="#263238" stroke-linecap="round" stroke-linejoin="round"/>
<path d="M330.251 273.287C330.251 273.287 335.025 273.287 335.978 272.363C336.931 271.439 335.823 270.079 332.799 270.387C329.775 270.695 327.394 271.449 330.251 273.287Z" fill="#263238" stroke="#263238" stroke-linecap="round" stroke-linejoin="round"/>
<path d="M332.987 251.857C333.463 252.919 333.231 253.982 332.467 254.333C331.702 254.683 330.694 254.067 330.251 253.026C329.808 251.984 329.996 250.901 330.761 250.55C331.525 250.199 332.533 250.805 332.987 251.857Z" fill="#263238"/>
<path d="M318.821 255.066C319.081 255.463 319.173 255.94 319.079 256.401C318.984 256.861 318.709 257.269 318.311 257.541C317.536 257.86 316.528 257.276 316.096 256.234C315.664 255.193 315.852 254.109 316.616 253.759C317.381 253.408 318.344 254.014 318.821 255.066Z" fill="#263238"/>
<path d="M311.488 251.91C312.225 250.968 313.19 250.211 314.299 249.706C315.409 249.201 316.63 248.962 317.857 249.01L317.381 247.182" stroke="#263238" stroke-linecap="round" stroke-linejoin="round"/>
<path d="M323.251 245.354L324.359 246.725C327.4 245.248 330.845 244.713 334.217 245.195" stroke="#263238" stroke-linecap="round" stroke-linejoin="round"/>
<path d="M458.806 420.115C458.806 420.115 491.15 430.357 499.634 430.963C508.119 431.568 526.96 436.084 526.96 436.084C526.96 436.084 563.69 439.994 566.249 440.621C568.807 441.248 592.002 448.154 598.603 449.057C605.205 449.96 614.62 451.469 614.62 451.469L612.737 463.518L537.04 463.22L455.073 467.736L433.33 455.358L411.033 449.939C411.033 449.939 407.887 428.848 408.818 423.122C409.748 417.395 414.478 413.187 427.648 413.782C440.818 414.377 458.806 420.115 458.806 420.115Z" fill="#263238" stroke="#263238" stroke-linecap="round" stroke-linejoin="round"/>
<path d="M413.237 391.746C413.237 391.746 428.988 382.916 443.299 388.803C457.61 394.689 462.926 413.91 463.336 421.166C463.746 428.423 461.498 453.137 461.498 453.137C467.204 452.56 472.94 452.297 478.677 452.351C486.652 452.553 520.591 455.103 523.249 454.901C525.908 454.699 531.003 454.71 531.003 454.71V464.516C531.003 464.516 511.785 469.829 491.548 475.503C471.311 481.177 453.888 487.86 449.014 488.837C447.067 489.214 445.044 488.931 443.29 488.035C441.536 487.14 440.161 485.688 439.4 483.928C438.17 481.187 421.201 446.666 417.324 436.275C413.447 425.884 411.177 419.02 411.177 417.448C411.177 415.875 413.237 391.746 413.237 391.746Z" fill="#263238" stroke="#263238" stroke-linecap="round" stroke-linejoin="round"/>
<path d="M520.979 454.306L526.052 454.168" stroke="#A6A6A6" stroke-linecap="round" stroke-linejoin="round"/>
<path d="M463.325 424.684L464.499 457.568C464.499 457.568 480.472 455.698 488.259 455.326C492.9 455.103 505.405 454.742 514.776 454.498" stroke="#A6A6A6" stroke-linecap="round" stroke-linejoin="round"/>
<path d="M425.244 452.872C421.888 445.047 419.631 436.829 418.532 428.434" stroke="#A6A6A6" stroke-linecap="round" stroke-linejoin="round"/>
<path d="M429.043 460.894C429.043 460.894 428.5 459.916 427.647 458.184" stroke="#A6A6A6" stroke-linecap="round" stroke-linejoin="round"/>
<path d="M531.014 454.721L547.374 456.846C547.374 456.846 564.964 464.496 565.374 470.573C565.783 476.651 560.877 479.796 553.311 476.651C545.746 473.506 539.2 465.675 537.361 465.08C535.273 464.67 533.145 464.474 531.014 464.496V454.721Z" fill="white" stroke="#263238" stroke-linecap="round" stroke-linejoin="round"/>
<path d="M287.696 422.357L297.51 415.493C297.51 415.493 302.206 395.486 307.733 393.127C313.26 390.768 325.312 389.015 329.809 390.386C334.306 391.756 367.026 402.934 368.665 403.136C370.305 403.338 378.28 403.529 378.28 403.529C378.28 403.529 382.976 398.036 385.845 397.643C388.714 397.25 391.561 400.193 391.561 400.193L415.287 389.993C415.287 389.993 417.502 406.472 415.486 418.627C413.47 430.782 415.287 437.263 416.715 444.127C417.634 448.934 418.182 453.799 418.355 458.683L406.492 459.268C406.492 459.268 414.245 465.356 415.287 466.705C416.145 467.767 417.101 468.752 418.144 469.649C415.014 469.433 411.871 469.433 408.74 469.649C405.063 470.042 397.907 471.412 383.597 469.054C369.286 466.695 362.739 465.133 356.393 465.133C350.046 465.133 340.243 465.728 340.243 465.728C340.243 465.728 314.268 459.64 312.23 459.448C310.192 459.257 302.417 461.212 299.548 461.573C296.679 461.935 293.422 461.765 293.422 457.058C293.422 452.351 293.622 447.846 292.603 444.117C291.584 440.387 287.696 422.357 287.696 422.357Z" fill="#92E3A9" stroke="#263238" stroke-linecap="round" stroke-linejoin="round"/>
<path d="M391.571 456.282C384.349 455.22 375.111 454.157 370.304 454.837C364.543 455.733 358.643 455.299 353.091 453.573" stroke="#263238" stroke-linecap="round" stroke-linejoin="round"/>
<path d="M401.762 458.014C401.762 458.014 399.624 457.6 396.401 457.058" stroke="#263238" stroke-linecap="round" stroke-linejoin="round"/>
<path d="M379.908 407.205C379.908 407.205 359.715 416.099 350.444 416.417L379.908 407.205Z" fill="#92E3A9"/>
<path d="M379.908 407.205C379.908 407.205 359.715 416.099 350.444 416.417" stroke="#263238" stroke-linecap="round" stroke-linejoin="round"/>
<path d="M391.162 401.755C391.162 401.755 390.342 413.92 387.684 419.414" stroke="#263238" stroke-linecap="round" stroke-linejoin="round"/>
<path d="M396.401 424.992C396.338 426.42 396.157 427.841 395.858 429.242" stroke="#263238" stroke-linecap="round" stroke-linejoin="round"/>
<path d="M393.2 401.17C394.865 407.526 395.932 414.012 396.39 420.55" stroke="#263238" stroke-linecap="round" stroke-linejoin="round"/>
<path d="M323.672 445.668C323.672 445.668 292.281 459.279 291.329 460.362C290.376 461.446 280.175 463.624 277.528 464.177C274.88 464.729 257.667 463.114 258.42 464.177C259.174 465.239 272.421 469.075 275.035 469.075C277.649 469.075 289.789 466.95 290.919 466.716C292.049 466.482 322.321 458.907 326.098 457.642C328.4 456.87 330.625 455.899 332.744 454.742L323.672 445.668Z" fill="white" stroke="#263238" stroke-linecap="round" stroke-linejoin="round"/>
<path d="M310.015 412.285L331.193 439.495L323.672 445.668L336.111 456.559C336.111 456.559 349.403 450.938 353.136 449.302C356.868 447.666 359.372 446.221 358.807 443.681C358.242 441.142 336.299 396.517 336.299 396.517" fill="#92E3A9"/>
<path d="M310.015 412.285L331.193 439.495L323.672 445.668L336.111 456.559C336.111 456.559 349.403 450.938 353.136 449.302C356.868 447.666 359.372 446.221 358.807 443.681C358.242 441.142 336.299 396.517 336.299 396.517" stroke="#263238" stroke-linecap="round" stroke-linejoin="round"/>
<path d="M326.84 474.515C326.84 474.515 335.923 474.515 340.464 471.795C345.006 469.075 348.971 462.902 348.03 457.823C347.088 452.744 350.112 452.744 340.276 451.841C333.141 451.15 325.978 452.883 320.039 456.739C316.063 459.098 314.745 461.818 322.875 461.638C331.005 461.457 336.3 462.179 333.652 464.719C331.005 467.258 324.78 473.24 326.84 474.515Z" fill="#92E3A9" stroke="#263238" stroke-linecap="round" stroke-linejoin="round"/>
<path d="M305.097 461.446C305.097 461.446 283.155 474.196 281.837 475.056C280.519 475.917 274.46 475.598 271.236 474.514C268.938 473.641 266.391 473.577 264.048 474.334C261.633 474.988 259.171 475.471 256.682 475.779C254.599 475.959 251.144 475.237 251.764 477.415C252.384 479.593 256.682 479.232 256.682 479.232C256.682 479.232 253.27 486.128 254.223 486.85C255.175 487.573 268.966 487.211 273.695 486.308C278.425 485.405 289.402 482.313 290.908 481.771C292.415 481.23 321.734 476.693 329.676 473.271C337.618 469.85 344.43 462.572 344.43 458.758C344.43 454.943 345.006 453.137 336.3 454.593C327.594 456.048 317.769 455.103 305.097 461.446Z" fill="white" stroke="#263238" stroke-linecap="round" stroke-linejoin="round"/>
<path d="M271.923 486.447C271.158 486.447 255.729 488.487 255.729 488.487C255.729 488.487 252.284 484.64 251.708 484.237C251.132 483.833 250.434 480.284 250.434 480.284C250.434 480.284 251.763 479.221 252.328 480.284L252.893 481.347C252.893 481.347 256.294 480.486 257.811 480.985C259.085 481.389 260.835 481.888 260.835 481.888C260.835 481.888 261.4 479.891 262.729 480.252C265.075 481.33 267.349 482.543 269.541 483.886C269.541 483.886 273.972 479.944 276.11 479.221C277.542 478.793 279.057 478.684 280.54 478.903" fill="white"/>
<path d="M271.923 486.447C271.158 486.447 255.729 488.487 255.729 488.487C255.729 488.487 252.284 484.64 251.708 484.237C251.132 483.833 250.434 480.284 250.434 480.284C250.434 480.284 251.763 479.221 252.328 480.284L252.893 481.347C252.893 481.347 256.294 480.486 257.811 480.985C259.085 481.389 260.835 481.888 260.835 481.888C260.835 481.888 261.4 479.891 262.729 480.252C265.075 481.33 267.349 482.543 269.541 483.886C269.541 483.886 273.972 479.944 276.11 479.221C277.542 478.793 279.057 478.684 280.54 478.903" stroke="#263238" stroke-linecap="round" stroke-linejoin="round"/>
<path d="M260.835 481.953C262.766 483.563 264.898 484.937 267.182 486.043" stroke="#263238" stroke-linecap="round" stroke-linejoin="round"/>
<path d="M256.57 481.06C257.405 483.734 259.303 485.986 261.854 487.329" stroke="#263238" stroke-linecap="round" stroke-linejoin="round"/>
<path d="M252.894 481.411C252.894 481.411 254.478 486.287 258.255 487.977" stroke="#263238" stroke-linecap="round" stroke-linejoin="round"/>
<path d="M327.416 439.867C327.416 439.867 333.84 445.849 337.241 448.569C340.641 451.289 345.947 454.944 345.947 454.944C345.947 454.944 338.57 457.664 337.44 458.025C336.31 458.386 331.193 456.389 327.228 453.488C324.573 451.428 322.274 448.979 320.416 446.231L327.416 439.867Z" fill="#92E3A9" stroke="#263238" stroke-linecap="round" stroke-linejoin="round"/>
<path d="M297.509 447.071L299.138 453.934L310.391 449.302L297.509 447.071Z" fill="#92E3A9" stroke="#263238" stroke-linecap="round" stroke-linejoin="round"/>
<path d="M271.048 430.07C272.716 430.468 274.443 430.59 276.154 430.431C278.236 430.07 278.99 427.52 275.777 423.355C274.595 421.71 272.809 420.553 270.776 420.116C268.743 419.679 266.613 419.993 264.812 420.996C262.164 422.622 260.082 424.078 256.681 424.258C253.281 424.439 247.222 419.902 242.282 423.355C237.342 426.808 237.364 427.892 236.422 429.518C235.481 431.143 229.444 432.418 226.199 440.408C222.953 448.398 226.01 454.221 226.199 455.283C226.387 456.346 219.209 457.642 216.75 464.899C214.291 472.156 219.774 478.51 227.716 479.955C235.658 481.4 250.412 477.235 252.871 472.517C255.33 467.8 253.436 465.802 252.306 464.017C252.12 463.67 252.013 463.288 251.994 462.898C251.974 462.508 252.041 462.118 252.191 461.755C252.341 461.391 252.57 461.063 252.863 460.792C253.156 460.521 253.506 460.312 253.89 460.182C254.654 460.182 253.513 458.003 254.278 452.022C255.042 446.04 257.302 439.675 262.22 437.688C267.138 435.701 271.081 436.233 272.056 434.777C273.03 433.321 271.048 430.07 271.048 430.07Z" fill="#A6A6A6" stroke="#263238" stroke-linecap="round" stroke-linejoin="round"/>
<path d="M248.839 450.598C248.839 450.598 248.43 444.52 243.301 444.318C238.173 444.116 234.296 447.655 237.575 454.943C240.853 462.232 245.14 464.559 241.662 469.457C238.184 474.355 221.214 480.645 222.444 470.637C223.673 460.628 234.096 462.009 232.258 464.952C230.419 467.895 227.351 465.143 227.351 465.143" stroke="#263238" stroke-linecap="round" stroke-linejoin="round"/>
<path d="M226.199 455.284C226.199 455.284 233.077 449.971 238.383 461.191" stroke="#263238" stroke-linecap="round" stroke-linejoin="round"/>
<path d="M236.977 434.511C236.977 434.511 239.635 431.377 249.659 431.186C259.683 430.994 257.158 437.21 255.353 438.411" stroke="#263238" stroke-linecap="round" stroke-linejoin="round"/>
<path d="M262.951 428.041C262.951 428.041 254.765 424.312 250.069 425.916C245.373 427.52 243.113 429.837 240.665 430.038" stroke="#263238" stroke-linecap="round" stroke-linejoin="round"/>
<path d="M293.367 446.571L310.381 449.291L290.897 430.251C290.897 430.251 280.308 431.877 278.226 430.07C276.143 428.264 265.177 429.518 265.177 429.518C265.177 429.518 268.766 433.152 265.554 433.874C262.342 434.597 258.365 435.149 255.341 438.411C252.317 441.673 252.506 444.032 251.753 446.752C250.999 449.472 247.964 451.65 247.588 454.189C247.211 456.729 247.399 459.098 253.126 462.541C258.853 465.983 271.469 466.164 274.88 465.622C280.532 464.398 286.042 462.636 291.329 460.362C296.812 458.004 296.435 453.286 296.059 452.022C295.265 450.16 294.366 448.34 293.367 446.571Z" fill="white" stroke="#263238" stroke-linecap="round" stroke-linejoin="round"/>
<path d="M293.367 446.571L286.998 438.485L299.791 447.644L293.367 446.571Z" fill="#263238" stroke="#263238" stroke-linecap="round" stroke-linejoin="round"/>
<path d="M276.718 451.108C276.718 451.108 277.671 454.742 276.342 456.92" stroke="#263238" stroke-linecap="round" stroke-linejoin="round"/>
<path d="M283.719 450.386C284.299 451.894 284.429 453.528 284.095 455.103" stroke="#263238" stroke-linecap="round" stroke-linejoin="round"/>
<path d="M268.213 444.945C268.412 445.751 268.432 446.588 268.269 447.401C268.107 448.214 267.767 448.985 267.271 449.663" stroke="#263238" stroke-linecap="round" stroke-linejoin="round"/>
<path d="M267.647 456.92C267.647 456.92 269.542 460.543 267.836 462.36" stroke="#263238" stroke-linecap="round" stroke-linejoin="round"/>
<path d="M260.836 447.304C260.732 445.183 261.477 443.104 262.918 441.492" stroke="#263238" stroke-linecap="round" stroke-linejoin="round"/>
<path d="M261.644 456.739C261.341 457.794 261.304 458.902 261.535 459.974C261.766 461.045 262.259 462.048 262.973 462.901" stroke="#263238" stroke-linecap="round" stroke-linejoin="round"/>
<path d="M267.458 432.61C267.458 432.61 260.812 427.892 262.352 426.075C263.892 424.258 272 425.895 272.941 428.073C273.502 429.456 273.633 430.965 273.318 432.418" fill="white"/>
<path d="M267.458 432.61C267.458 432.61 260.812 427.892 262.352 426.075C263.892 424.258 272 425.895 272.941 428.073C273.502 429.456 273.633 430.965 273.318 432.418" stroke="#263238" stroke-linecap="round" stroke-linejoin="round"/>
<path d="M287.485 418.628L279.72 423.143L302.006 447.464L310.801 445.307L287.485 418.628Z" fill="#92E3A9" stroke="#263238" stroke-linecap="round" stroke-linejoin="round"/>
<path d="M614.576 451.448C614.576 451.448 624.944 451.745 630.282 452.054C635.621 452.362 641.569 453.254 644.416 458.684C647.263 464.113 644.726 469.532 640.329 470.743C635.931 471.954 628.399 467.12 623.714 465.622C620.128 464.59 616.449 463.878 612.726 463.497L614.576 451.448Z" fill="white" stroke="#263238" stroke-linecap="round" stroke-linejoin="round"/>
<path d="M376.407 312.515L378.622 347.472C378.622 347.472 370.869 358.001 366.051 364.418C361.232 370.836 346.312 385.945 344.883 387.167C343.09 388.33 341.17 389.303 339.157 390.067C339.157 390.067 329.443 389.302 327.537 388.845C325.632 388.389 322.918 389.143 321.335 389.302C319.751 389.462 317.513 388.24 317.668 389.908C317.823 391.576 319.418 392.033 321.645 392.5C323.871 392.968 326.075 392.203 326.906 392.66C327.738 393.221 328.534 393.832 329.288 394.487C329.288 394.487 320.903 399.885 320.426 400.65C319.95 401.415 316.394 405.782 317.037 407.163C317.679 408.544 318.942 407.769 319.584 406.706C320.229 405.768 320.971 404.896 321.8 404.103C321.8 404.103 320.526 407.29 320.05 408.682C319.573 410.074 319.407 411.285 320.36 411.434C321.312 411.583 322.276 410.212 322.276 410.212C322.276 410.212 322.907 412.199 324.347 411.742C325.787 411.285 325.377 410.563 327.449 408.279C328.556 407.035 332.145 405.633 332.145 405.633C332.145 405.633 329.121 410.361 329.276 410.945C329.432 411.53 329.919 412.624 330.871 412.167C331.824 411.71 335.479 406.366 336.122 405.792C336.764 405.219 342.17 405.187 343.443 403.965C344.717 402.743 350.92 394.806 350.92 394.806C350.92 394.806 381.635 372.366 386.365 368.095C391.095 363.823 399.413 348.97 399.413 348.247C399.413 347.525 395.437 299.372 395.437 299.372L376.407 312.515Z" fill="white" stroke="#263238" stroke-linecap="round" stroke-linejoin="round"/>
<path d="M321.822 404.103C321.822 404.103 328.025 398.791 331.525 397.537" stroke="#263238" stroke-linecap="round" stroke-linejoin="round"/>
<path d="M322.299 410.212C323.224 408.433 324.435 406.805 325.888 405.388C328.27 403.775 330.736 402.279 333.276 400.905" stroke="#263238" stroke-linecap="round" stroke-linejoin="round"/>
<path d="M332.168 405.633L334.671 403.773" stroke="#263238" stroke-linecap="round" stroke-linejoin="round"/>
<path d="M371.633 279.695L375.61 316.022L402.315 296.482C402.315 296.482 394.894 282.542 392.767 277.251C389.256 268.549 374.624 262.907 365.231 265.5" fill="#263238"/>
<path d="M371.633 279.695L375.61 316.022L402.315 296.482C402.315 296.482 394.894 282.542 392.767 277.251C389.256 268.549 374.624 262.907 365.231 265.5" stroke="#263238" stroke-linecap="round" stroke-linejoin="round"/>
</svg>
