<?xml version="1.0" standalone="no"?>
<!DOCTYPE svg PUBLIC "-//W3C//DTD SVG 20010904//EN"
 "http://www.w3.org/TR/2001/REC-SVG-20010904/DTD/svg10.dtd">
<svg version="1.0" xmlns="http://www.w3.org/2000/svg"
 width="512.000000pt" height="512.000000pt" viewBox="0 0 512.000000 512.000000"
 preserveAspectRatio="xMidYMid meet">
<metadata>
Created by potrace 1.16, written by Peter Selinger 2001-2019
</metadata>
<g transform="translate(0.000000,512.000000) scale(0.100000,-0.100000)"
fill="#000000" stroke="none">
<path d="M2575 4705 c-209 -69 -451 -148 -538 -176 -155 -50 -158 -51 -155
-77 2 -18 10 -28 23 -30 11 -1 222 63 468 143 246 80 453 145 460 145 29 0
1582 -512 1599 -527 10 -9 18 -26 18 -38 0 -13 -103 -232 -229 -489 l-230
-466 -1161 0 -1161 0 -230 463 c-126 255 -229 475 -229 489 0 14 7 32 16 39 9
8 96 41 193 74 167 57 176 61 179 88 3 24 0 27 -24 27 -15 0 -104 -25 -198
-56 -200 -65 -226 -83 -233 -161 -4 -46 4 -66 221 -503 l225 -455 -427 -5
c-311 -4 -435 -8 -455 -18 -53 -23 -96 -64 -122 -115 l-25 -51 0 -322 0 -322
29 -56 30 -56 -48 0 c-78 0 -148 -26 -195 -74 -72 -71 -76 -96 -76 -430 0
-182 4 -306 11 -331 18 -65 63 -120 121 -149 51 -26 56 -26 262 -26 199 0 208
-1 193 -18 -9 -9 -25 -38 -36 -62 -19 -42 -21 -65 -21 -360 0 -309 1 -316 24
-365 29 -64 82 -110 148 -130 75 -22 559 -22 582 0 22 22 288 22 306 0 11 -13
173 -15 1351 -15 929 0 1354 3 1389 11 66 14 127 62 159 124 26 49 26 51 29
345 2 193 0 313 -8 346 -15 68 -57 124 -122 159 -53 29 -54 29 -254 33 l-202
4 29 55 29 55 0 313 c0 329 -3 353 -47 412 l-24 33 62 0 c88 0 137 18 190 70
74 71 79 100 79 435 0 317 -6 353 -65 422 -19 22 -55 49 -79 59 l-44 18 230
461 c213 426 230 463 225 502 -5 51 -28 88 -65 107 -40 21 -1725 566 -1764
571 -23 3 -142 -32 -413 -120z m1215 -2020 l0 -445 -375 0 -375 0 0 445 0 445
375 0 375 0 0 -445z m594 421 c23 -12 50 -37 67 -65 l29 -45 0 -308 c0 -351
-2 -363 -82 -415 l-41 -28 -254 -3 -253 -3 0 440 0 440 88 4 c48 2 159 3 247
3 137 -1 166 -4 199 -20z m-1406 -423 l-3 -438 -1089 -3 c-724 -1 -1101 1
-1127 8 -50 14 -98 55 -120 105 -17 36 -19 70 -19 320 0 162 4 296 10 317 13
47 55 97 95 114 24 11 240 13 1143 14 l1112 0 -2 -437z m-258 -943 l0 -440
-1107 2 c-1067 3 -1109 4 -1146 22 -22 11 -51 37 -65 59 l-27 40 -3 296 c-2
189 1 309 7 332 15 51 48 88 95 110 39 18 92 19 1144 19 l1102 0 0 -440z m820
0 l0 -440 -380 0 -380 0 0 440 0 440 380 0 380 0 0 -440z m287 419 c30 -15 52
-35 71 -67 l27 -47 3 -250 c5 -364 -2 -405 -87 -462 -30 -20 -46 -23 -137 -23
l-104 0 0 435 0 435 92 0 c73 0 101 -4 135 -21z m233 -1359 l0 -440 -375 0
-375 0 0 440 0 440 375 0 375 0 0 -440z"/>
<path d="M2782 4458 c-8 -8 -12 -59 -12 -165 l0 -153 -153 0 c-106 0 -157 -4
-165 -12 -8 -8 -12 -67 -12 -200 0 -175 1 -188 19 -198 11 -5 84 -10 165 -10
l146 0 0 -155 c0 -142 1 -155 19 -165 25 -13 360 -13 381 0 12 7 16 40 18 164
l3 155 155 3 c124 2 157 6 164 18 13 21 13 356 0 381 -10 18 -23 19 -165 19
l-155 0 0 146 c0 81 -5 154 -10 165 -10 18 -23 19 -198 19 -133 0 -192 -4
-200 -12z m340 -210 l3 -163 163 -3 162 -2 0 -145 0 -145 -153 0 c-106 0 -157
-4 -165 -12 -8 -8 -12 -59 -12 -165 l0 -153 -145 0 -145 0 -2 163 -3 162 -163
3 -163 2 3 143 3 142 163 3 162 2 0 159 c0 87 3 161 7 164 3 4 68 7 144 7
l139 0 2 -162z"/>
<path d="M504 4182 c-7 -4 -17 -26 -23 -49 -15 -56 -50 -95 -103 -117 -69 -29
-73 -32 -73 -56 0 -18 9 -25 44 -36 56 -16 82 -42 111 -107 35 -81 36 -82 61
-82 20 0 26 7 34 40 12 50 72 112 138 143 42 20 48 26 45 49 -2 22 -11 28 -51
40 -50 15 -93 60 -123 133 -19 45 -37 57 -60 42z m62 -273 l-51 -47 -16 27
c-9 14 -27 36 -41 49 l-25 23 46 47 46 47 46 -50 46 -49 -51 -47z"/>
<path d="M926 3978 c-27 -101 -40 -129 -73 -163 -36 -37 -123 -85 -154 -85
-22 0 -41 -25 -37 -47 2 -11 20 -22 53 -31 91 -26 147 -85 186 -198 11 -32 27
-64 36 -71 23 -18 53 1 53 34 0 42 38 110 82 147 22 19 71 51 109 71 57 30 69
40 69 61 0 13 -6 26 -12 28 -7 2 -33 9 -56 16 -76 20 -147 104 -191 223 -8 20
-17 27 -36 27 -14 0 -27 -6 -29 -12z m73 -178 c18 -27 53 -64 78 -82 l45 -33
-28 -20 c-16 -11 -55 -46 -88 -78 -32 -32 -59 -57 -60 -55 -34 57 -63 93 -99
124 l-44 38 46 31 c25 17 60 52 76 78 17 25 33 46 36 46 3 1 20 -21 38 -49z"/>
<path d="M481 3605 c-15 -60 -63 -111 -126 -133 -41 -15 -50 -22 -50 -42 0
-20 9 -27 50 -42 59 -21 88 -53 117 -130 18 -51 24 -58 48 -58 24 0 29 5 39
43 14 60 38 86 115 131 51 30 66 44 66 62 0 19 -8 25 -42 35 -53 14 -109 70
-133 133 -15 39 -22 46 -45 46 -24 0 -29 -5 -39 -45z m111 -153 l27 -24 -52
-48 c-51 -47 -52 -47 -66 -26 -8 11 -27 35 -43 52 l-28 30 25 14 c13 7 35 28
47 47 l23 33 20 -27 c11 -15 32 -38 47 -51z"/>
</g>
</svg>
