<svg width="14" height="12" viewBox="0 0 14 12" fill="none" xmlns="http://www.w3.org/2000/svg">
<path fill-rule="evenodd" clip-rule="evenodd" d="M13 4.34218C13 6.0959 11.6269 7.46707 9.99448 7.46707C8.36208 7.46707 6.989 6.0959 6.989 4.34218C6.989 2.58845 8.36208 1.21729 9.99448 1.21729C11.6269 1.21729 13 2.58845 13 4.34218ZM14 4.34218C14 6.62029 12.2066 8.46707 9.99448 8.46707C8.86794 8.46707 7.85002 7.98814 7.12224 7.21721L0.648438 11.2173L0.14502 10.3532L6.52762 6.40952C6.1851 5.8017 5.989 5.09552 5.989 4.34218C5.989 2.06406 7.78231 0.217285 9.99448 0.217285C12.2066 0.217285 14 2.06406 14 4.34218Z" fill="#C2C2C2"/>
</svg>
