<svg width="33" height="33" viewBox="0 0 33 33" fill="none" xmlns="http://www.w3.org/2000/svg">
<path d="M1.16197 33C0.974559 33 0.789932 32.9547 0.623834 32.8679C0.457737 32.7811 0.315096 32.6554 0.20808 32.5016C0.101064 32.3477 0.0328474 32.1703 0.00924911 31.9843C-0.0143492 31.7984 0.00737086 31.6096 0.0725567 31.4339L4.85329 18.5469C4.92379 18.3569 5.04276 18.1886 5.19839 18.0588C5.35401 17.929 5.54089 17.8422 5.74045 17.8069L13.0444 16.5157L5.74576 15.2604C5.54481 15.2258 5.35648 15.139 5.19971 15.0086C5.04294 14.8782 4.92324 14.7089 4.85263 14.5176L0.0718927 1.56421C-0.00874699 1.34566 -0.021836 1.10792 0.0343245 0.881844C0.0904849 0.655766 0.213302 0.451786 0.386836 0.296377C0.560371 0.140968 0.776611 0.041306 1.00749 0.0103238C1.23838 -0.0206584 1.47324 0.0184702 1.68161 0.122631L32.358 15.4607C32.5509 15.5572 32.7132 15.7056 32.8266 15.8891C32.9399 16.0726 33 16.2841 33 16.4998C33 16.7156 32.9399 16.927 32.8266 17.1106C32.7132 17.2941 32.5509 17.4424 32.358 17.539L1.68161 32.877C1.52032 32.9579 1.34239 33 1.16197 33ZM6.80058 19.9792L3.27525 29.4823L29.2401 16.5L3.26881 3.51447L6.80058 13.0838L20.005 15.3546C20.2746 15.401 20.5191 15.541 20.6956 15.75C20.8721 15.9589 20.9692 16.2235 20.9699 16.497C20.9705 16.7706 20.8746 17.0356 20.6991 17.2454C20.5236 17.4552 20.2796 17.5963 20.0103 17.6439L6.80058 19.9792Z" fill="white"/>
</svg>
